<?xml version="1.0" encoding="utf-8"?>
<!-- Generator: Adobe Illustrator 16.0.0, SVG Export Plug-In . SVG Version: 6.00 Build 0)  -->
<!DOCTYPE svg PUBLIC "-//W3C//DTD SVG 1.1//EN" "http://www.w3.org/Graphics/SVG/1.1/DTD/svg11.dtd">
<svg version="1.1" id="Layer_1" xmlns:sketch="http://www.bohemiancoding.com/sketch/ns"
	 xmlns="http://www.w3.org/2000/svg" xmlns:xlink="http://www.w3.org/1999/xlink" x="0px" y="0px" width="512px" height="512px"
	 viewBox="-245.5 -247.5 512 512" enable-background="new -245.5 -247.5 512 512" xml:space="preserve">
<title>arrow_green</title>
<desc>Created with Sketch.</desc>
<g id="Page-1" sketch:type="MSPage">
	<g id="tweegs-home-footer-2" transform="translate(-840.000000, -1359.000000)" sketch:type="MSArtboardGroup">
		<g id="Group" transform="translate(758.000000, 1065.000000)" sketch:type="MSLayerGroup">
			<g id="button-scopri-copy" transform="translate(82.000000, 287.000000)" sketch:type="MSShapeGroup">
				<path id="arrow_green" fill="#47A948" d="M-52.288,48.44h272.554c13.29,0,24.069-10.825,24.069-24.14
					c0-13.336-10.757-24.185-24.069-24.185H-52.288c-13.302,0-24.058,10.849-24.058,24.185C-76.312,37.615-65.59,48.44-52.288,48.44
					z M-48.292-171.136L-216.896,7.648c-4.411,4.641-6.737,10.849-6.599,17.252c0.162,6.402,2.833,12.461,7.428,16.906
					l168.788,161.625c9.663,9.236,24.945,8.844,34.078-0.898c9.132-9.674,8.729-24.922-0.875-34.09L-165.681,23.633l152.342-161.532
					c9.121-9.651,8.741-24.91-0.83-34.112c-4.572-4.342-10.515-6.68-16.653-6.68C-37.374-178.691-43.696-176.02-48.292-171.136z"/>
			</g>
		</g>
	</g>
</g>
</svg>
