<?xml version="1.0" encoding="utf-8"?>
<!-- Generator: Adobe Illustrator 16.0.0, SVG Export Plug-In . SVG Version: 6.00 Build 0)  -->
<!DOCTYPE svg PUBLIC "-//W3C//DTD SVG 1.1//EN" "http://www.w3.org/Graphics/SVG/1.1/DTD/svg11.dtd">
<svg version="1.1"
	 id="Layer_1" xmlns:sketch="http://www.bohemiancoding.com/sketch/ns" inkscape:version="0.91 r13725" sodipodi:docname="arrow-down.svg" xmlns:cc="http://creativecommons.org/ns#" xmlns:dc="http://purl.org/dc/elements/1.1/" xmlns:svg="http://www.w3.org/2000/svg" xmlns:sodipodi="http://sodipodi.sourceforge.net/DTD/sodipodi-0.dtd" xmlns:inkscape="http://www.inkscape.org/namespaces/inkscape" xmlns:rdf="http://www.w3.org/1999/02/22-rdf-syntax-ns#"
	 xmlns="http://www.w3.org/2000/svg" xmlns:xlink="http://www.w3.org/1999/xlink" x="0px" y="0px" width="512px" height="512px"
	 viewBox="-247.758 -246.083 512 512" enable-background="new -247.758 -246.083 512 512" xml:space="preserve">
<sodipodi:namedview  inkscape:pageopacity="0" inkscape:pageshadow="2" borderopacity="1" fit-margin-top="0" pagecolor="#ffffff" inkscape:zoom="13.882353" id="namedview12" inkscape:cy="10.12706" gridtolerance="10" inkscape:cx="8.32494" objecttolerance="10" bordercolor="#666666" guidetolerance="10" fit-margin-left="0" showgrid="false" fit-margin-bottom="0" inkscape:window-x="65" inkscape:window-y="24" inkscape:window-maximized="1" inkscape:current-layer="Layer_1" fit-margin-right="0" inkscape:window-width="1301" inkscape:window-height="744">
	</sodipodi:namedview>
<title  id="title3">arrow_green</title>
<desc  id="desc5">Created with Sketch.</desc>
<g id="Page-1" transform="matrix(0,1,-1,0,16.952,-0.5)" sketch:type="MSPage">
	<g id="tweegs-home-footer-2" transform="translate(-840,-1359)" sketch:type="MSArtboardGroup">
		<g id="Group" transform="translate(758,1065)" sketch:type="MSLayerGroup">
			<g id="button-scopri-copy" transform="translate(82,287)" sketch:type="MSShapeGroup">
				<path id="arrow_green" inkscape:connector-curvature="0" fill="#47A948" d="M73.726-17.351h-275.13
					c-13.416,0-24.297,10.928-24.297,24.402c0,13.451,10.858,24.402,24.297,24.402H73.749c13.416,0,24.274-10.951,24.274-24.402
					C98.001-6.423,87.165-17.351,73.726-17.351z M69.704,204.314L239.878,23.839c4.465-4.697,6.812-10.951,6.65-17.403
					c-0.162-6.44-2.859-12.579-7.51-17.043L68.634-173.784c-9.742-9.347-25.181-8.928-34.389,0.907
					c-9.207,9.765-8.812,25.181,0.885,34.435L188.168,7.737L34.432,170.786c-9.208,9.742-8.835,25.146,0.837,34.423
					c4.58,4.383,10.603,6.743,16.787,6.743C58.659,211.929,65.077,209.232,69.704,204.314z"/>
			</g>
		</g>
	</g>
</g>
</svg>
