<?xml version="1.0" encoding="utf-8"?>
<!-- Generator: Adobe Illustrator 16.0.0, SVG Export Plug-In . SVG Version: 6.00 Build 0)  -->
<!DOCTYPE svg PUBLIC "-//W3C//DTD SVG 1.1//EN" "http://www.w3.org/Graphics/SVG/1.1/DTD/svg11.dtd">
<svg version="1.1" id="Layer_1" xmlns:sketch="http://www.bohemiancoding.com/sketch/ns"
	 xmlns="http://www.w3.org/2000/svg" xmlns:xlink="http://www.w3.org/1999/xlink" x="0px" y="0px" width="512px" height="512px"
	 viewBox="-245.5 -247.5 512 512" enable-background="new -245.5 -247.5 512 512" xml:space="preserve">
<title>arrow_green</title>
<desc>Created with Sketch.</desc>
<g id="Page-1" sketch:type="MSPage">
	<g id="tweegs-home-footer-2" transform="translate(-840.000000, -1359.000000)" sketch:type="MSArtboardGroup">
		<g id="Group" transform="translate(758.000000, 1065.000000)" sketch:type="MSLayerGroup">
			<g id="button-scopri-copy" transform="translate(82.000000, 287.000000)" sketch:type="MSShapeGroup">
				<path id="arrow_green" fill="#47A948" d="M73.402-17.196h-273.717c-13.359,0-24.186,10.884-24.186,24.29
					c0,13.382,10.803,24.278,24.186,24.278H73.426c13.348,0,24.174-10.896,24.174-24.278C97.553-6.312,86.773-17.196,73.402-17.196z
					 M69.4,203.34L238.709,23.783c4.441-4.661,6.778-10.895,6.616-17.314s-2.845-12.503-7.448-16.957L68.359-172.822
					c-9.715-9.288-25.075-8.883-34.236,0.902c-9.16,9.716-8.768,25.041,0.879,34.248L187.262,7.775L34.309,169.982
					c-9.16,9.692-8.791,25.029,0.832,34.26c4.581,4.371,10.549,6.708,16.703,6.708C58.412,210.928,64.797,208.244,69.4,203.34z"/>
			</g>
		</g>
	</g>
</g>
</svg>
