<?xml version="1.0" encoding="utf-8"?>
<!-- Generator: Adobe Illustrator 16.0.4, SVG Export Plug-In . SVG Version: 6.00 Build 0)  -->
<!DOCTYPE svg PUBLIC "-//W3C//DTD SVG 1.1//EN" "http://www.w3.org/Graphics/SVG/1.1/DTD/svg11.dtd">
<svg version="1.1" id="Layer_1" xmlns="http://www.w3.org/2000/svg" xmlns:xlink="http://www.w3.org/1999/xlink" x="0px" y="0px"
	 width="512px" height="512px" viewBox="0 0 512 512" enable-background="new 0 0 512 512" xml:space="preserve">
<g>
	<path d="M356.35,509.23H155.891c-15.413,0-30.129-5.744-41.425-16.171c-11.327-10.39-18.278-24.583-19.542-39.934L80.879,274.767
		c-0.684-8.689,5.805-16.285,14.488-16.969c8.603-0.706,16.288,5.799,16.966,14.491l14.039,178.304
		c0.604,7.358,3.969,14.211,9.459,19.252c5.485,5.06,12.597,7.833,20.06,7.833H356.35c7.463,0,14.586-2.779,20.071-7.82
		c5.497-5.047,8.855-11.912,9.478-19.339l20.855-248.314c0.659-7.821,6.963-13.971,14.796-14.43
		c13.878-0.816,24.749-12.328,24.749-26.209c0-14.507-11.808-26.312-26.314-26.312H92.268c-14.507,0-26.314,11.805-26.314,26.312
		c0,13.758,10.661,25.184,24.349,26.188h98.707c8.714,0,15.776,7.062,15.776,15.776s-7.062,15.776-15.776,15.776H89.79
		c-0.308,0-0.61-0.009-0.918-0.027C58.33,217.503,34.4,192.15,34.4,161.565c0-31.907,25.957-57.864,57.867-57.864h327.717
		c31.91,0,57.867,25.957,57.867,57.864c0,25.778-17.009,47.844-40.654,55.202L417.341,453.15
		c-1.275,15.333-8.228,29.52-19.566,39.934C386.46,503.493,371.75,509.23,356.35,509.23z"/>
</g>
<g>
	<path d="M189.027,89.046c-0.949,0-1.904-0.086-2.872-0.262c-8.566-1.575-14.235-9.799-12.664-18.368
		C180.831,30.482,215.582,1.5,256.12,1.5c40.568,0,75.332,28.986,82.653,68.923c1.571,8.569-4.104,16.79-12.671,18.362
		c-8.565,1.568-16.799-4.102-18.364-12.674c-4.572-24.949-26.284-43.058-51.618-43.058c-25.31,0-47.009,18.112-51.594,43.064
		C203.127,83.725,196.49,89.046,189.027,89.046z"/>
</g>
</svg>
