<?xml version="1.0" encoding="utf-8"?>
<!-- Generator: Adobe Illustrator 16.0.4, SVG Export Plug-In . SVG Version: 6.00 Build 0)  -->
<!DOCTYPE svg PUBLIC "-//W3C//DTD SVG 1.1//EN" "http://www.w3.org/Graphics/SVG/1.1/DTD/svg11.dtd">
<svg version="1.1" id="Layer_1" xmlns="http://www.w3.org/2000/svg" xmlns:xlink="http://www.w3.org/1999/xlink" x="0px" y="0px"
	 width="512px" height="512px" viewBox="0 0 512 512" enable-background="new 0 0 512 512" xml:space="preserve">
<g>
	<path d="M435.061,510.239H76.47c-9.481,0-17.835-3.925-24.147-11.354c-5.662-6.697-8.645-15.162-8.645-24.501V37.759
		c0-9.345,2.983-17.81,8.62-24.48c6.351-7.454,14.697-11.37,24.173-11.37h193.939c8.769,0,15.876,7.107,15.876,15.875
		s-7.107,15.875-15.876,15.875H76.47c-0.285,0.546-1.042,1.436-1.042,4.099v436.625c0,2.647,0.782,3.571,1.11,3.969l358.138,0.136
		c0.645-0.731,1.271-1.711,1.271-4.104V174.771H333.271c-8.769,0-15.875-7.106-15.875-15.875V19.567
		c0-6.421,3.87-12.21,9.798-14.666c5.96-2.462,12.769-1.094,17.302,3.442l68.971,68.968c6.201,6.198,6.201,16.25,0,22.449
		c-6.201,6.201-16.247,6.201-22.448,0l-41.871-41.868v85.128h102.675c8.769,0,15.875,7.107,15.875,15.875v315.488
		c0,9.357-2.982,17.822-8.632,24.482C452.74,506.314,444.442,510.239,435.061,510.239z"/>
</g>
</svg>
