<?xml version="1.0" encoding="utf-8"?>
<!-- Generator: Adobe Illustrator 16.0.0, SVG Export Plug-In . SVG Version: 6.00 Build 0)  -->
<!DOCTYPE svg PUBLIC "-//W3C//DTD SVG 1.1//EN" "http://www.w3.org/Graphics/SVG/1.1/DTD/svg11.dtd">
<svg version="1.1" id="Layer_1" xmlns:sketch="http://www.bohemiancoding.com/sketch/ns"
	 xmlns="http://www.w3.org/2000/svg" xmlns:xlink="http://www.w3.org/1999/xlink" x="0px" y="0px" width="512px" height="512px"
	 viewBox="-246 -248 512 512" enable-background="new -246 -248 512 512" xml:space="preserve">
<title>email</title>
<desc>Created with Sketch.</desc>
<g id="Page-1" sketch:type="MSPage">
	<g id="tweegs-pagina-produttore-profilo" transform="translate(-896.000000, -637.000000)" sketch:type="MSArtboardGroup">
		<path id="email" sketch:type="MSShapeGroup" fill="#32303F" d="M1139.5,479.025v276.232c0,39.084-31.787,70.848-70.848,70.848
			H743.336c-39.061,0-70.836-31.764-70.836-70.848V576.473c0-8.608,6.978-15.585,15.597-15.585c8.608,0,15.586,6.978,15.586,15.585
			v178.785c0,21.867,17.797,39.677,39.654,39.677h325.316c21.867,0,39.653-17.81,39.653-39.677V511.565L915.873,666.281
			c-5.7,4.561-13.818,4.584-19.53,0L678.326,491.179c-5.153-4.15-7.137-11.093-4.937-17.33c2.189-6.248,8.083-10.421,14.708-10.421
			h338.347c8.62,0,15.598,6.978,15.598,15.597c0,8.608-6.978,15.585-15.598,15.585H732.402l173.7,139.507l208.04-167.247
			c4.676-3.763,11.082-4.503,16.51-1.916C1136.057,467.556,1139.5,473.017,1139.5,479.025"/>
	</g>
</g>
</svg>
