<?xml version="1.0" encoding="utf-8"?>
<!-- Generator: Adobe Illustrator 16.0.0, SVG Export Plug-In . SVG Version: 6.00 Build 0)  -->
<!DOCTYPE svg PUBLIC "-//W3C//DTD SVG 1.1//EN" "http://www.w3.org/Graphics/SVG/1.1/DTD/svg11.dtd">
<svg version="1.1" id="Icons" xmlns="http://www.w3.org/2000/svg" xmlns:xlink="http://www.w3.org/1999/xlink" x="0px" y="0px"
	 width="512px" height="512px" viewBox="-206 -206 512 512" enable-background="new -206 -206 512 512" xml:space="preserve">
<path id="Facebook" d="M-10.143-89.072c0,11.443,0,62.507,0,62.507h-45.792v76.433h45.792V277h94.073V49.873h63.127
	c0,0,5.905-36.65,8.773-76.723c-8.222,0-71.552,0-71.552,0s0-44.469,0-52.258c0-7.811,10.264-18.32,20.395-18.32
	c10.127,0,31.479,0,51.261,0c0-10.402,0-46.362,0-79.572c-26.408,0-56.453,0-69.693,0C-12.466-177.004-10.143-100.495-10.143-89.072
	z"/>
</svg>
