<?xml version="1.0" encoding="utf-8"?>
<!-- Generator: Adobe Illustrator 16.0.0, SVG Export Plug-In . SVG Version: 6.00 Build 0)  -->
<!DOCTYPE svg PUBLIC "-//W3C//DTD SVG 1.1//EN" "http://www.w3.org/Graphics/SVG/1.1/DTD/svg11.dtd">
<svg version="1.1" id="Layer_1" xmlns="http://www.w3.org/2000/svg" xmlns:xlink="http://www.w3.org/1999/xlink" x="0px" y="0px"
	 width="512px" height="512px" viewBox="0 0 512 512" enable-background="new 0 0 512 512" xml:space="preserve">
<path fill="#010101" d="M269.885,441.915c-59.234,0-96.951-26.494-96.951-65.827c0-39.124,34.868-51.771,47.142-56.219
	c23.124-7.818,53.37-8.704,58.165-8.704c5.352,0,8.201,0,12.996,0.347c41.625,30.073,59.59,43.416,59.59,71.699
	C350.826,414.691,318.442,441.915,269.885,441.915 M204.952,121.876c0-39.315,23.306-57.105,47.854-57.105
	c47.324,0,71.334,61.371,71.334,98.375c0,45.726-36.831,54.621-51.407,54.621C228.971,217.767,204.952,163.329,204.952,121.876
	 M341.045,284.48l-19.197-15.133c-6.428-5.334-14.594-12.266-14.594-25.251c0-12.987,9.781-22.95,17.252-28.822
	c23.297-18.146,45.708-37.361,45.708-77.215c0-36.822-22.585-57.991-36.274-69.735h31.133l22.236-22.238h-110.84
	c-77.562,0-117.416,48.21-117.416,101.763c0,41.452,31.845,85.927,88.594,85.927h14.237c-2.311,6.228-6.228,14.941-6.228,23.124
	c0,17.973,7.47,25.443,16.366,35.588c-25.261,1.772-71.334,7.645-105.316,28.457c-33.087,19.562-40.914,46.786-40.914,66.713
	c0,40.914,36.64,80.056,116.877,80.056c95.178,0,142.85-52.657,142.85-104.604C385.52,324.682,365.419,304.928,341.045,284.48z"/>
</svg>
