<?xml version="1.0" encoding="utf-8"?>
<!-- Generator: Adobe Illustrator 16.0.4, SVG Export Plug-In . SVG Version: 6.00 Build 0)  -->
<!DOCTYPE svg PUBLIC "-//W3C//DTD SVG 1.1//EN" "http://www.w3.org/Graphics/SVG/1.1/DTD/svg11.dtd">
<svg version="1.1" id="Layer_1" xmlns="http://www.w3.org/2000/svg" xmlns:xlink="http://www.w3.org/1999/xlink" x="0px" y="0px"
	 width="512px" height="512px" viewBox="0 0 512 512" enable-background="new 0 0 512 512" xml:space="preserve">
<g>
	<path d="M206.904,507.632h-69.868c-82.852,0-86.885-39.815-86.885-110.191V156.748c0-33.02,6.914-38.809,39.562-60.724
		c0.353-0.235,0.712-0.458,1.084-0.666L248.919,6.683c4.838-2.71,10.736-2.701,15.562,0.028l157.54,89.06
		c7.626,4.309,10.309,13.985,6.003,21.611c-4.312,7.623-13.994,10.305-21.614,6L256.645,38.717l-149.777,83.995
		C81.87,139.489,81.87,139.609,81.87,156.748V397.44c0,69.583,2.044,78.473,55.167,78.473h69.868c8.76,0,15.859,7.1,15.859,15.859
		S215.664,507.632,206.904,507.632z"/>
</g>
<g>
	<path d="M337.248,507.632h-32.549c-8.76,0-15.859-7.1-15.859-15.859s7.1-15.859,15.859-15.859h32.549
		c42.002,0,72.135-2.236,82.673-13.134c9.336-9.658,9.812-32.982,9.812-70.232v-156.76c0-8.76,7.1-15.859,15.859-15.859
		s15.859,7.099,15.859,15.859v156.76C461.452,487.3,450.747,507.632,337.248,507.632z"/>
</g>
<g>
	<path d="M304.699,507.632c-8.76,0-15.859-7.1-15.859-15.859v-52.075c0-4.43-2.844-8.178-6.207-8.178h-53.662
		c-3.364,0-6.208,3.748-6.208,8.178v52.075c0,8.76-7.1,15.859-15.859,15.859s-15.859-7.1-15.859-15.859v-52.075
		c0-21.999,17.012-39.896,37.926-39.896h53.662c20.914,0,37.926,17.897,37.926,39.896v52.075
		C320.559,500.532,313.459,507.632,304.699,507.632z"/>
</g>
</svg>
