<?xml version="1.0" encoding="utf-8"?>
<!-- Generator: Adobe Illustrator 16.0.0, SVG Export Plug-In . SVG Version: 6.00 Build 0)  -->
<!DOCTYPE svg PUBLIC "-//W3C//DTD SVG 1.1//EN" "http://www.w3.org/Graphics/SVG/1.1/DTD/svg11.dtd">
<svg version="1.1" id="Layer_1" xmlns:sketch="http://www.bohemiancoding.com/sketch/ns"
	 xmlns="http://www.w3.org/2000/svg" xmlns:xlink="http://www.w3.org/1999/xlink" x="0px" y="0px" width="512px" height="512px"
	 viewBox="-203.5 -194.5 512 512" enable-background="new -203.5 -194.5 512 512" xml:space="preserve">
<title>250m_lavori</title>
<desc>Created with sketchtool.</desc>
<g id="Page-1" sketch:type="MSPage">
	<g id="tweegs-impatto" transform="translate(-407.000000, -1064.000000)" sketch:type="MSArtboardGroup">
		<g id="Group-3" transform="translate(0.000000, 908.000000)" sketch:type="MSLayerGroup">
			<path id="_x32_50m_x5F_lavori" sketch:type="MSShapeGroup" fill="#32303F" d="M446.279,27.354c-2.349,0-4.656,0.949-6.318,2.624
				c-1.662,1.667-2.619,3.978-2.619,6.333c0,2.356,0.957,4.667,2.619,6.333c1.662,1.666,3.969,2.625,6.318,2.625
				c2.352,0,4.656-0.958,6.318-2.625c1.662-1.666,2.619-3.976,2.619-6.333c0-2.355-0.957-4.666-2.619-6.333
				C450.936,28.303,448.631,27.354,446.279,27.354 M643.652,18.174c0-9.488-6.705-17.207-14.947-17.207
				c-8.245,0-14.949,7.718-14.949,17.207s6.704,17.207,14.949,17.207C636.947,35.381,643.652,27.663,643.652,18.174 M657.061,18.174
				c0,16.895-12.718,30.641-28.355,30.641c-15.637,0-28.354-13.747-28.354-30.641c0-16.896,12.718-30.641,28.354-30.641
				C644.343-12.467,657.061,1.278,657.061,18.174 M577.998,18.174c0-9.488-6.704-17.207-14.946-17.207
				c-8.246,0-14.95,7.718-14.95,17.207s6.704,17.207,14.95,17.207C571.294,35.381,577.998,27.663,577.998,18.174 M591.406,18.174
				c0,16.895-12.721,30.641-28.354,30.641c-15.638,0-28.355-13.747-28.355-30.641c0-16.896,12.718-30.641,28.355-30.641
				C578.686-12.467,591.406,1.278,591.406,18.174 M482.447,18.174c0,9.488,6.705,17.207,14.95,17.207
				c8.242,0,14.946-7.718,14.946-17.207S505.64,0.968,497.397,0.968C489.152,0.968,482.447,8.686,482.447,18.174 M469.043,18.174
				c0-16.896,12.718-30.641,28.354-30.641c15.634,0,28.355,13.745,28.355,30.641c0,16.895-12.722,30.641-28.355,30.641
				C481.761,48.815,469.043,35.069,469.043,18.174 M413.865,18.174c0-9.488-6.706-17.207-14.95-17.207
				c-8.244,0-14.95,7.718-14.95,17.207s6.706,17.207,14.95,17.207C407.159,35.381,413.865,27.663,413.865,18.174 M398.915,48.815
				c-15.636,0-28.355-13.747-28.355-30.641c0-16.896,12.72-30.641,28.355-30.641c15.635,0,28.354,13.745,28.354,30.641
				C427.27,35.069,414.55,48.815,398.915,48.815 M339.77,35.455c-2.68,0-5.18-1.205-6.856-3.308
				c-2.312-2.895-6.53-3.363-9.421-1.045c-2.89,2.318-3.358,6.544-1.045,9.442c4.236,5.304,10.55,8.346,17.323,8.346
				c12.229,0,22.182-9.973,22.182-22.23c0-8.539-4.002-15.593-10.979-19.352c-4.877-2.63-10.744-3.33-16.49-2.184v-6.975h13.409
				c3.701,0,6.702-3.007,6.702-6.717c0-3.711-3.001-6.718-6.702-6.718H327.78c-3.701,0-6.702,3.007-6.702,6.718V15.03
				c0,2.474,1.355,4.747,3.528,5.918c2.173,1.17,4.812,1.049,6.872-0.313c4.268-2.829,9.553-3.43,13.146-1.493
				c2.602,1.402,3.922,3.932,3.922,7.518C348.547,31.509,344.608,35.455,339.77,35.455 M267.759,14.575
				c3.701,0,6.702-3.009,6.702-6.719c0-5.375,4.363-9.746,9.724-9.746c5.362,0,9.724,4.372,9.724,9.746
				c0,1.857-2.86,7.488-13.583,16.815c-7.583,6.598-15.329,11.782-15.405,11.832c-2.46,1.64-3.562,4.701-2.708,7.538
				c0.854,2.834,3.461,4.775,6.416,4.775h35.483c3.703,0,6.705-3.007,6.705-6.717s-3.001-6.717-6.705-6.717h-15.648
				c0.182-0.158,0.364-0.316,0.546-0.474c12.487-10.844,18.304-19.439,18.304-27.051c0-12.781-10.376-23.181-23.129-23.181
				s-23.129,10.4-23.129,23.181C261.057,11.566,264.058,14.575,267.759,14.575 M399.877,145.139c4.936,0,8.937-4.01,8.937-8.957
				c0-8.155,6.621-14.791,14.759-14.791h70.973c8.135,0,14.757,6.636,14.757,14.791c0,4.947,4.001,8.957,8.937,8.957
				c4.937,0,8.937-4.01,8.937-8.957c0-18.033-14.638-32.705-32.63-32.705h-70.973c-17.994,0-32.632,14.671-32.632,32.705
				C390.94,141.129,394.94,145.139,399.877,145.139 M656.422,223.527v33.8c0,42.12-34.187,76.388-76.214,76.388h-67.207
				c-5.575,0-10.894,2.096-14.979,5.896l-5.639,5.248c-7.398,6.886-17.037,10.683-27.137,10.683h-12.375
				c-10.099,0-19.738-3.797-27.141-10.683l-5.638-5.248c-4.084-3.8-9.403-5.896-14.978-5.896h-60.242
				c-13.213,0-25.542-6.537-32.976-17.486c-4.102-6.039-10.905-9.65-18.198-9.65h-14.133v91.436
				c0,18.538,15.047,33.618,33.542,33.618h291.901c18.498,0,33.541-15.08,33.541-33.618v-50.875c0-4.943,4.004-8.955,8.937-8.955
				c4.939,0,8.937,4.012,8.937,8.955v50.875c0,28.418-23.062,51.536-51.414,51.536H313.107c-28.349,0-51.415-23.118-51.415-51.536
				V297.62c0-4.948,4-8.956,8.937-8.956h23.069c13.214,0,25.542,6.538,32.976,17.487c4.103,6.043,10.905,9.649,18.198,9.649h60.242
				c10.103,0,19.74,3.793,27.143,10.683l5.636,5.248c4.086,3.8,9.405,5.892,14.978,5.892h12.375c5.572,0,10.891-2.092,14.977-5.892
				l5.639-5.248c7.398-6.89,17.041-10.683,27.14-10.683h67.207c32.169,0,58.341-26.229,58.341-58.474v-33.8
				c0-18.541-15.043-33.622-33.541-33.622H313.107c-18.495,0-33.542,15.082-33.542,33.622v29.603c0,4.947-4.002,8.959-8.937,8.959
				c-4.937,0-8.937-4.012-8.937-8.959v-29.603c0-28.418,23.066-51.536,51.415-51.536h291.901
				C633.359,171.991,656.422,195.109,656.422,223.527"/>
		</g>
	</g>
</g>
</svg>
