<?xml version="1.0" encoding="utf-8"?>
<!-- Generator: Adobe Illustrator 16.0.0, SVG Export Plug-In . SVG Version: 6.00 Build 0)  -->
<!DOCTYPE svg PUBLIC "-//W3C//DTD SVG 1.1//EN" "http://www.w3.org/Graphics/SVG/1.1/DTD/svg11.dtd">
<svg version="1.1" id="Layer_1" xmlns:sketch="http://www.bohemiancoding.com/sketch/ns"
	 xmlns="http://www.w3.org/2000/svg" xmlns:xlink="http://www.w3.org/1999/xlink" x="0px" y="0px" width="512px" height="512px"
	 viewBox="-192.5 -196.5 512 512" enable-background="new -192.5 -196.5 512 512" xml:space="preserve">
<title>1ml_investimenti</title>
<desc>Created with sketchtool.</desc>
<g id="Page-1" sketch:type="MSPage">
	<g id="tweegs-impatto" transform="translate(-132.000000, -650.000000)" sketch:type="MSArtboardGroup">
		<path id="_x31_ml_x5F_investimenti" sketch:type="MSShapeGroup" fill="#32303F" d="M223.938,543.014
			c2.344,0,4.644-0.956,6.303-2.616c1.655-1.661,2.607-3.964,2.607-6.314c0-2.348-0.952-4.651-2.607-6.313
			c-1.659-1.661-3.959-2.616-6.303-2.616c-2.34,0-4.64,0.956-6.299,2.616c-1.655,1.663-2.61,3.966-2.61,6.313
			c0,2.35,0.955,4.653,2.61,6.314C219.298,542.058,221.598,543.014,223.938,543.014 M-2.944,527.77
			c-1.659-1.661-3.957-2.616-6.301-2.616c-2.352,0-4.642,0.956-6.299,2.616c-1.657,1.663-2.611,3.966-2.611,6.313
			c0,2.35,0.954,4.653,2.611,6.314c1.657,1.661,3.957,2.616,6.299,2.616c2.344,0,4.642-0.956,6.301-2.616
			c1.657-1.661,2.609-3.964,2.609-6.314C-0.335,531.736-1.287,529.433-2.944,527.77 M420.714,516.003
			c0-9.459-6.685-17.154-14.905-17.154c-8.217,0-14.904,7.695-14.904,17.154c0,9.458,6.688,17.153,14.904,17.153
			C414.029,533.156,420.714,525.461,420.714,516.003 M434.078,516.003c0,16.843-12.68,30.548-28.27,30.548
			c-15.586,0-28.269-13.705-28.269-30.548c0-16.845,12.683-30.548,28.269-30.548C421.398,485.455,434.078,499.158,434.078,516.003
			 M325.449,516.003c0,9.458,6.684,17.153,14.904,17.153c8.222,0,14.905-7.695,14.905-17.153c0-9.459-6.684-17.154-14.905-17.154
			C332.133,498.849,325.449,506.544,325.449,516.003 M312.085,516.003c0-16.845,12.679-30.548,28.269-30.548
			s28.27,13.703,28.27,30.548c0,16.843-12.68,30.548-28.27,30.548S312.085,532.847,312.085,516.003 M259.994,516.003
			c0,9.458,6.688,17.153,14.904,17.153c8.218,0,14.905-7.695,14.905-17.153c0-9.459-6.688-17.154-14.905-17.154
			C266.682,498.849,259.994,506.544,259.994,516.003 M246.63,516.003c0-16.845,12.679-30.548,28.269-30.548
			c15.587,0,28.27,13.703,28.27,30.548c0,16.843-12.683,30.548-28.27,30.548C259.309,546.552,246.63,532.847,246.63,516.003
			 M161.812,516.003c0,9.458,6.686,17.153,14.905,17.153c8.217,0,14.903-7.695,14.903-17.153c0-9.459-6.686-17.154-14.903-17.154
			C168.498,498.849,161.812,506.544,161.812,516.003 M148.447,516.003c0-16.845,12.681-30.548,28.269-30.548
			c15.586,0,28.269,13.703,28.269,30.548c0,16.843-12.683,30.548-28.269,30.548C161.128,546.552,148.447,532.847,148.447,516.003
			 M96.356,516.003c0,9.458,6.686,17.153,14.903,17.153c8.219,0,14.905-7.695,14.905-17.153c0-9.459-6.686-17.154-14.905-17.154
			C103.042,498.849,96.356,506.544,96.356,516.003 M82.992,516.003c0-16.845,12.681-30.548,28.267-30.548
			c15.588,0,28.269,13.703,28.269,30.548c0,16.843-12.681,30.548-28.269,30.548C95.673,546.552,82.992,532.847,82.992,516.003
			 M30.901,516.003c0,9.458,6.686,17.153,14.903,17.153c8.219,0,14.904-7.695,14.904-17.153c0-9.459-6.686-17.154-14.904-17.154
			C37.587,498.849,30.901,506.544,30.901,516.003 M17.535,516.003c0-16.845,12.681-30.548,28.27-30.548
			c15.588,0,28.269,13.703,28.269,30.548c0,16.843-12.681,30.548-28.269,30.548C30.216,546.552,17.535,532.847,17.535,516.003
			 M-37.318,483.993c-3.69,0-6.682,3-6.682,6.697v50.626c0,3.699,2.992,6.697,6.682,6.697c3.692,0,6.682-2.998,6.682-6.697v-50.626
			C-30.636,486.992-33.626,483.993-37.318,483.993 M106.971,797.041h27.984c6.303,18.152,18.091,34.379,33.494,45.991
			c16.955,12.783,37.158,19.538,58.429,19.538c25.988,0,50.417-10.144,68.788-28.559c3.48-3.488,3.48-9.139,0-12.627
			c-3.478-3.488-9.117-3.488-12.598,0c-15.009,15.042-34.965,23.325-56.19,23.325c-17.375,0-33.874-5.514-47.716-15.952
			c-10.909-8.225-19.598-19.274-25.073-31.717h57.766c4.922,0,8.909-4,8.909-8.932c0-4.933-3.987-8.932-8.909-8.932H106.971
			c-4.919,0-8.909,3.999-8.909,8.932C98.062,793.041,102.052,797.041,106.971,797.041 M179.16,701.38
			c13.842-10.437,30.343-15.955,47.718-15.955c15.86,0,31.169,4.666,44.267,13.492c4.084,2.751,9.62,1.663,12.367-2.429
			c2.744-4.094,1.659-9.641-2.425-12.393c-16.053-10.812-34.794-16.528-54.209-16.528c-21.271,0-41.474,6.758-58.431,19.541
			c-15.401,11.611-27.191,27.836-33.492,45.988h-27.984c-4.919,0-8.909,3.999-8.909,8.932s3.99,8.928,8.909,8.928h104.883
			c4.922,0,8.909-3.995,8.909-8.928s-3.987-8.932-8.909-8.932h-57.766C159.564,720.654,168.253,709.604,179.16,701.38
			 M398.877,632.951v264.234c0,6.292-2.548,11.613-7.165,14.982c-4.885,3.559-11.506,4.362-18.175,2.2
			c-47.133-15.36-95.098-9.754-139.905-1.415c-4.843,0.896-9.49-2.303-10.391-7.146c-0.896-4.851,2.296-9.51,7.132-10.413
			c47.125-8.772,97.754-14.601,148.659,1.985c0.937,0.303,1.611,0.348,1.992,0.325c0.019-0.13,0.033-0.304,0.033-0.519V632.951
			c0-3.872-3.799-9.048-7.521-10.255c-57.149-18.615-113.702-7.006-173.58,5.284c-59.508,12.22-121.042,24.851-182.649,4.779
			c-0.933-0.304-1.609-0.352-1.992-0.326c-0.019,0.129-0.031,0.302-0.031,0.518v264.234c0,3.874,3.795,9.047,7.521,10.258
			c45.046,14.672,89.899,10.917,143.39,0.756c4.834-0.919,9.496,2.266,10.413,7.109c0.916,4.848-2.261,9.517-7.095,10.436
			c-26.525,5.039-54.087,9.184-82.019,9.184c-23.264,0-46.782-2.874-70.186-10.498c-11.12-3.604-19.843-15.572-19.843-27.244
			V632.951c0-6.292,2.544-11.613,7.166-14.982c4.88-3.559,11.507-4.358,18.174-2.2c57.144,18.621,113.698,7.01,173.577-5.284
			c59.506-12.216,121.043-24.849,182.65-4.777C390.152,609.311,398.877,621.279,398.877,632.951"/>
	</g>
</g>
</svg>
