<?xml version="1.0" encoding="utf-8"?>
<!-- Generator: Adobe Illustrator 16.0.0, SVG Export Plug-In . SVG Version: 6.00 Build 0)  -->
<!DOCTYPE svg PUBLIC "-//W3C//DTD SVG 1.1//EN" "http://www.w3.org/Graphics/SVG/1.1/DTD/svg11.dtd">
<svg version="1.1" id="Layer_1" xmlns:sketch="http://www.bohemiancoding.com/sketch/ns"
	 xmlns="http://www.w3.org/2000/svg" xmlns:xlink="http://www.w3.org/1999/xlink" x="0px" y="0px" width="512px" height="512px"
	 viewBox="-200 -194.5 512 512" enable-background="new -200 -194.5 512 512" xml:space="preserve">
<title>30m_formazione</title>
<desc>Created with sketchtool.</desc>
<g id="Page-1" sketch:type="MSPage">
	<g id="tweegs-impatto" transform="translate(-663.000000, -1064.000000)" sketch:type="MSArtboardGroup">
		<g id="Group-3" transform="translate(0.000000, 908.000000)" sketch:type="MSLayerGroup">
			<path id="_x33_0m_x5F_formazione" sketch:type="MSShapeGroup" fill="#32303F" d="M920.099,210.229L729.626,104.132
				c-6.787-3.781-14.891-3.779-21.679,0L517.475,210.229c-7.141,3.978-11.538,11.536-11.475,19.723s4.578,15.675,11.78,19.541
				l190.472,102.241c6.597,3.543,14.472,3.539,21.072,0l101.749-54.622v76.48c0,5.669-2.324,11.186-6.381,15.138
				c-28.559,27.825-66.221,43.269-106.046,43.492c-0.292,0-0.577,0-0.87,0c-39.506,0-77-15.008-105.654-42.308l-1.277-1.222
				c-4.163-3.964-6.55-9.54-6.55-15.299v-52.808c0-4.962-4.012-8.984-8.962-8.984c-4.95,0-8.962,4.022-8.962,8.984v52.808
				c0,10.657,4.419,20.979,12.125,28.321l1.278,1.218c32.004,30.496,73.876,47.254,118.001,47.254c0.322,0,0.646,0,0.97-0.004
				c44.483-0.245,86.545-17.495,118.441-48.572c7.505-7.312,11.812-17.525,11.812-28.019v-91.477c0-3.159-1.654-6.087-4.358-7.707
				c-2.704-1.624-6.057-1.702-8.835-0.212l-114.945,61.699c-1.297,0.696-2.846,0.696-4.145,0L526.242,233.655
				c-2.073-1.11-2.312-3.059-2.317-3.845c-0.006-0.782,0.203-2.734,2.259-3.881l190.471-106.095c1.334-0.743,2.93-0.743,4.266,0
				l190.47,106.095c2.056,1.146,2.265,3.099,2.257,3.881c-0.004,0.786-0.242,2.734-2.316,3.845l-35.372,18.989
				c-2.913,1.564-4.73,4.604-4.73,7.915v43.451c0,4.962,4.015,8.984,8.962,8.984c4.95,0,8.962-4.022,8.962-8.984v-38.072
				l30.642-16.445c7.203-3.866,11.715-11.354,11.777-19.541C931.639,221.765,927.239,214.207,920.099,210.229 M880.19,321.19
				c-2.354,0-4.667,0.961-6.332,2.63c-1.669,1.672-2.63,3.993-2.63,6.354s0.961,4.679,2.63,6.351c1.665,1.669,3.978,2.63,6.332,2.63
				c2.361,0,4.671-0.961,6.34-2.63c1.665-1.672,2.622-3.989,2.622-6.351s-0.957-4.683-2.622-6.354
				C884.861,322.151,882.552,321.19,880.19,321.19 M671.336,29.422c-1.667,1.67-2.626,3.987-2.626,6.351
				c0,2.362,0.959,4.679,2.626,6.351c1.667,1.669,3.98,2.63,6.336,2.63s4.669-0.961,6.336-2.63c1.669-1.672,2.626-3.989,2.626-6.351
				c0-2.363-0.958-4.68-2.626-6.351c-1.667-1.68-3.98-2.634-6.336-2.634S673.003,27.742,671.336,29.422 M860.612,0.328
				c-8.262,0-14.989,7.74-14.989,17.254c0,9.515,6.728,17.256,14.989,17.256c8.27,0,14.996-7.741,14.996-17.256
				C875.608,8.068,868.882,0.328,860.612,0.328 M860.612-13.146c15.682,0,28.436,13.786,28.436,30.729
				c0,16.944-12.754,30.729-28.436,30.729c-15.679,0-28.437-13.784-28.437-30.729C832.176,0.639,844.934-13.146,860.612-13.146
				 M794.771,0.328c-8.262,0-14.989,7.74-14.989,17.254c0,9.515,6.728,17.256,14.989,17.256c8.27,0,14.997-7.741,14.997-17.256
				C809.768,8.068,803.04,0.328,794.771,0.328 M794.771-13.146c15.682,0,28.437,13.786,28.437,30.729
				c0,16.944-12.755,30.729-28.437,30.729c-15.675,0-28.433-13.784-28.433-30.729C766.338,0.639,779.096-13.146,794.771-13.146
				 M728.929,0.328c-8.266,0-14.991,7.74-14.991,17.254c0,9.515,6.725,17.256,14.991,17.256c8.27,0,14.997-7.741,14.997-17.256
				C743.926,8.068,737.198,0.328,728.929,0.328 M728.929-13.146c15.683,0,28.437,13.786,28.437,30.729
				c0,16.944-12.754,30.729-28.437,30.729c-15.678,0-28.434-13.784-28.434-30.729C700.495,0.639,713.251-13.146,728.929-13.146
				 M630.168,0.328c-8.267,0-14.991,7.74-14.991,17.254c0,9.515,6.724,17.256,14.991,17.256c8.268,0,14.993-7.741,14.993-17.256
				C645.161,8.068,638.436,0.328,630.168,0.328 M630.168-13.146c15.68,0,28.436,13.786,28.436,30.729
				c0,16.944-12.756,30.729-28.436,30.729c-15.68,0-28.436-13.784-28.436-30.729C601.732,0.639,614.489-13.146,630.168-13.146
				 M579.655,26.092c0-3.597-1.323-6.133-3.932-7.54c-3.604-1.942-8.903-1.339-13.185,1.498c-2.793,1.853-6.524,1.359-8.742-1.157
				c-2.22-2.516-2.254-6.284-0.077-8.839l10.698-12.555h-9.173c-3.712,0-6.722-3.015-6.722-6.736s3.01-6.736,6.722-6.736H579
				c2.624,0,5.006,1.529,6.105,3.917c1.097,2.386,0.71,5.196-0.995,7.195l-7.984,9.372c2.09,0.447,4.1,1.171,5.964,2.175
				c6.997,3.77,11.009,10.845,11.009,19.407c0,12.292-9.977,22.293-22.243,22.293c-6.792,0-13.125-3.051-17.373-8.37
				c-2.319-2.905-1.851-7.144,1.048-9.469c2.898-2.324,7.128-1.855,9.448,1.05c1.682,2.106,4.189,3.315,6.876,3.315
				C575.708,34.912,579.655,30.956,579.655,26.092"/>
		</g>
	</g>
</g>
</svg>
