<?xml version="1.0" encoding="utf-8"?>
<!-- Generator: Adobe Illustrator 16.0.0, SVG Export Plug-In . SVG Version: 6.00 Build 0)  -->
<!DOCTYPE svg PUBLIC "-//W3C//DTD SVG 1.1//EN" "http://www.w3.org/Graphics/SVG/1.1/DTD/svg11.dtd">
<svg version="1.1" id="Layer_1" xmlns:sketch="http://www.bohemiancoding.com/sketch/ns"
	 xmlns="http://www.w3.org/2000/svg" xmlns:xlink="http://www.w3.org/1999/xlink" x="0px" y="0px" width="512px" height="512px"
	 viewBox="-205.503 -194.893 512 512" enable-background="new -205.503 -194.893 512 512" xml:space="preserve">
<title>150m_professionisti</title>
<desc>Created with sketchtool.</desc>
<g id="Page-1" sketch:type="MSPage">
	<g id="tweegs-impatto" transform="translate(-929.000000, -1064.000000)" sketch:type="MSArtboardGroup">
		<g id="Group-3" transform="translate(0.000000, 908.000000)" sketch:type="MSLayerGroup">
			<path id="_x31_50m_x5F_professionisti" sketch:type="MSShapeGroup" fill="#32303F" d="M973.465,286.339
				c-5.015,0-9.079,4.075-9.079,9.102v102.572c0,5.025,4.064,9.101,9.079,9.101c5.013,0,9.077-4.075,9.077-9.101V295.44
				C982.542,290.414,978.478,286.339,973.465,286.339 M1048.17,316.038c0-5.025-4.063-9.097-9.078-9.097h-28.677
				c-5.015,0-9.078,4.071-9.078,9.097c0,5.022,4.063,9.098,9.078,9.098h28.677C1044.106,325.136,1048.17,321.061,1048.17,316.038
				 M1004.336,232.635c-1.063-0.17-2.022-0.597-2.814-1.212c17.907-3.61,31.431-19.496,31.431-38.487v-40.292
				c0-29.131-23.646-52.831-52.712-52.831h-12.603c-29.065,0-52.712,23.7-52.712,52.831v40.292c0,18.725,13.15,34.427,30.678,38.325
				c-0.826,0.702-1.856,1.192-3.011,1.374c-23.745,3.746-45.509,15.904-61.287,34.238c-15.95,18.53-24.732,42.227-24.732,66.729
				v65.018c0,30.103,24.434,54.595,54.467,54.595c5.015,0,9.081-4.075,9.081-9.101c0-5.026-4.066-9.102-9.081-9.102
				c-20.021,0-36.31-16.323-36.31-36.393v-65.018c0-20.138,7.218-39.619,20.323-54.844c12.974-15.074,30.859-25.073,50.361-28.145
				c11.831-1.868,20.417-11.886,20.417-23.824v-3.698c0-5.025-4.063-9.101-9.078-9.101h-2.662c-11.584,0-21.008-9.444-21.008-21.055
				v-40.292c0-19.097,15.5-34.633,34.554-34.633h12.603c19.055,0,34.556,15.536,34.556,34.633v40.292
				c0,11.61-9.426,21.055-21.01,21.055h-3.611c-5.015,0-9.078,4.076-9.078,9.101v3.698c0,11.938,8.584,21.956,20.417,23.82
				c19.5,3.075,37.39,13.074,50.361,28.148c13.104,15.225,20.323,34.706,20.323,54.844v65.018c0,20.069-16.289,36.393-36.311,36.393
				c-5.015,0-9.078,4.075-9.078,9.102c0,5.025,4.063,9.101,9.078,9.101c30.035,0,54.467-24.492,54.467-54.595v-65.018
				c0-24.503-8.78-48.199-24.729-66.729C1049.85,248.539,1028.081,236.381,1004.336,232.635 M808.919-18.479
				c-2.543-1.059-5.471-0.474-7.418,1.479L786.38-1.847c-2.658,2.666-2.658,6.986,0,9.652c2.659,2.664,6.969,2.664,9.629,0
				l3.496-3.505v35.072c0,3.77,3.049,6.824,6.809,6.824c3.762,0,6.809-3.054,6.809-6.824v-51.546
				C813.123-14.934,811.465-17.422,808.919-18.479 M960.485,24.319c-2.387,0-4.729,0.964-6.418,2.666
				c-1.688,1.692-2.66,4.041-2.66,6.434c0,2.392,0.972,4.741,2.66,6.433c1.689,1.692,4.032,2.666,6.418,2.666
				s4.73-0.974,6.418-2.666s2.66-4.041,2.66-6.433c0-2.393-0.972-4.741-2.66-6.434C965.215,25.283,962.872,24.319,960.485,24.319
				 M1160.99,14.994c0-9.639-6.811-17.48-15.188-17.48c-8.373,0-15.184,7.841-15.184,17.48c0,9.639,6.811,17.478,15.184,17.478
				C1154.18,32.471,1160.99,24.632,1160.99,14.994 M1174.607,14.994c0,17.163-12.919,31.127-28.805,31.127
				c-15.882,0-28.805-13.965-28.805-31.127c0-17.165,12.923-31.127,28.805-31.127C1161.688-16.134,1174.607-2.171,1174.607,14.994
				 M1094.294,14.994c0-9.639-6.811-17.48-15.188-17.48c-8.372,0-15.183,7.841-15.183,17.48c0,9.639,6.811,17.478,15.183,17.478
				C1087.483,32.471,1094.294,24.632,1094.294,14.994 M1107.912,14.994c0,17.163-12.92,31.127-28.806,31.127
				c-15.881,0-28.805-13.965-28.805-31.127c0-17.165,12.924-31.127,28.805-31.127C1094.992-16.134,1107.912-2.171,1107.912,14.994
				 M997.224,14.994c0,9.639,6.814,17.478,15.188,17.478c8.376,0,15.188-7.839,15.188-17.478c0-9.639-6.812-17.48-15.188-17.48
				C1004.038-2.486,997.224,5.354,997.224,14.994 M1012.411-16.134c15.885,0,28.805,13.963,28.805,31.127
				c0,17.163-12.92,31.127-28.805,31.127c-15.886,0-28.806-13.965-28.806-31.127C983.605-2.171,996.525-16.134,1012.411-16.134
				 M912.367-2.486c-8.375,0-15.188,7.841-15.188,17.48c0,9.639,6.812,17.478,15.188,17.478c8.375,0,15.187-7.839,15.187-17.478
				C927.554,5.354,920.742-2.486,912.367-2.486 M912.367-16.134c15.883,0,28.805,13.963,28.805,31.127
				c0,17.163-12.921,31.127-28.805,31.127c-15.884,0-28.805-13.965-28.805-31.127C883.562-2.171,896.483-16.134,912.367-16.134
				 M852.284,46.196c-6.88,0-13.295-3.09-17.597-8.479c-2.351-2.943-1.875-7.237,1.061-9.591c2.938-2.354,7.222-1.879,9.571,1.062
				c1.704,2.134,4.243,3.358,6.965,3.358c4.915,0,8.915-4.007,8.915-8.934c0-3.645-1.34-6.212-3.981-7.639
				c-3.654-1.964-9.02-1.354-13.357,1.517c-2.09,1.385-4.773,1.509-6.98,0.319c-2.208-1.188-3.584-3.498-3.584-6.011v-23.973
				c0-3.77,3.049-6.824,6.809-6.824h20.43c3.762,0,6.809,3.055,6.809,6.824s-3.047,6.824-6.809,6.824h-13.621v7.086
				c5.837-1.162,11.797-0.453,16.751,2.217c7.088,3.82,11.151,10.986,11.151,19.66C874.815,36.065,864.709,46.196,852.284,46.196"/>
		</g>
	</g>
</g>
</svg>
