<?xml version="1.0" encoding="utf-8"?>
<!-- Generator: Adobe Illustrator 16.0.0, SVG Export Plug-In . SVG Version: 6.00 Build 0)  -->
<!DOCTYPE svg PUBLIC "-//W3C//DTD SVG 1.1//EN" "http://www.w3.org/Graphics/SVG/1.1/DTD/svg11.dtd">
<svg version="1.1" id="Layer_1" xmlns:sketch="http://www.bohemiancoding.com/sketch/ns"
	 xmlns="http://www.w3.org/2000/svg" xmlns:xlink="http://www.w3.org/1999/xlink" x="0px" y="0px" width="512px" height="512px"
	 viewBox="-204 -196.5 512 512" enable-background="new -204 -196.5 512 512" xml:space="preserve">
<title>+10-lavoro</title>
<desc>Created with sketchtool.</desc>
<g id="Page-1" sketch:type="MSPage">
	<g id="tweegs-impatto" transform="translate(-667.000000, -651.000000)" sketch:type="MSArtboardGroup">
		<path id="_x2B_10-lavoro" sketch:type="MSShapeGroup" fill="#32303F" d="M765.861,513.911c0,9.607,6.79,17.425,15.142,17.425
			c8.348,0,15.138-7.817,15.138-17.425c0-9.61-6.79-17.427-15.138-17.427C772.651,496.484,765.861,504.301,765.861,513.911
			 M752.285,513.911c0-17.113,12.881-31.033,28.718-31.033c15.834,0,28.718,13.92,28.718,31.033
			c0,17.11-12.884,31.033-28.718,31.033C765.166,544.944,752.285,531.021,752.285,513.911 M715.664,508.153l3.487-3.493v34.964
			c0,3.758,3.039,6.803,6.786,6.803c3.751,0,6.79-3.045,6.79-6.803v-51.39c0-2.752-1.655-5.233-4.19-6.286
			c-2.539-1.053-5.459-0.472-7.399,1.475l-15.074,15.109c-2.65,2.658-2.65,6.965,0,9.621
			C708.716,510.81,713.014,510.811,715.664,508.153 M631.232,520.714h18.867v18.911c0,3.758,3.04,6.803,6.789,6.803
			c3.749,0,6.788-3.045,6.788-6.803v-18.911h18.869c3.749,0,6.788-3.045,6.788-6.803c0-3.758-3.04-6.803-6.788-6.803h-18.869
			v-18.913c0-3.756-3.04-6.803-6.788-6.803c-3.749,0-6.789,3.047-6.789,6.803v18.913h-18.867c-3.749,0-6.788,3.045-6.788,6.803
			C624.444,517.669,627.483,520.714,631.232,520.714 M754.832,589.049h-71.881c-18.222,0-33.049,14.859-33.049,33.125
			c0,5.009,4.053,9.07,9.053,9.07c4.998,0,9.051-4.061,9.051-9.07c0-8.261,6.704-14.981,14.946-14.981h71.881
			c8.242,0,14.945,6.72,14.945,14.981c0,5.009,4.056,9.07,9.052,9.07c4.999,0,9.051-4.061,9.051-9.07
			C787.88,603.909,773.058,589.049,754.832,589.049 M519,887.353V785.678c0-5.011,4.052-9.073,9.051-9.073h23.365
			c13.385,0,25.868,6.62,33.397,17.71c4.157,6.125,11.046,9.773,18.431,9.773h61.015c10.23,0,19.992,3.845,27.487,10.819
			l5.709,5.315c4.138,3.848,9.525,5.97,15.169,5.97h12.535c5.646,0,11.033-2.122,15.171-5.97l5.707-5.315
			c7.497-6.975,17.259-10.819,27.487-10.819h68.066c32.585,0,59.091-26.565,59.091-59.219v-34.238
			c0-18.773-15.239-34.048-33.974-34.048H571.075c-18.732,0-33.973,15.275-33.973,34.048v29.988c0,5.011-4.052,9.073-9.051,9.073
			c-4.999,0-9.051-4.062-9.051-9.073v-29.988c0-28.778,23.361-52.191,52.075-52.191h295.633c28.714,0,52.075,23.414,52.075,52.191
			v34.238c0,42.659-34.628,77.366-77.192,77.366h-68.066c-5.643,0-11.033,2.117-15.168,5.966l-5.71,5.315
			c-7.497,6.979-17.26,10.819-27.487,10.819h-12.535c-10.23,0-19.99-3.841-27.488-10.819l-5.708-5.315
			c-4.136-3.849-9.523-5.966-15.169-5.966h-61.015c-13.383,0-25.868-6.621-33.396-17.711c-4.157-6.124-11.047-9.777-18.433-9.777
			h-14.313v92.605c0,18.778,15.241,34.052,33.973,34.052h295.633c18.734,0,33.974-15.273,33.974-34.052V835.83
			c0-5.011,4.051-9.073,9.051-9.073c4.999,0,9.051,4.062,9.051,9.073v51.522c0,28.781-23.361,52.191-52.075,52.191H571.075
			C542.361,939.544,519,916.134,519,887.353"/>
	</g>
</g>
</svg>
