<?xml version="1.0" encoding="utf-8"?>
<!-- Generator: Adobe Illustrator 16.0.0, SVG Export Plug-In . SVG Version: 6.00 Build 0)  -->
<!DOCTYPE svg PUBLIC "-//W3C//DTD SVG 1.1//EN" "http://www.w3.org/Graphics/SVG/1.1/DTD/svg11.dtd">
<svg version="1.1" id="Layer_1" xmlns:sketch="http://www.bohemiancoding.com/sketch/ns"
	 xmlns="http://www.w3.org/2000/svg" xmlns:xlink="http://www.w3.org/1999/xlink" x="0px" y="0px" width="512px" height="512px"
	 viewBox="-221 -196 512 512" enable-background="new -221 -196 512 512" xml:space="preserve">
<title>7000_professionisti</title>
<desc>Created with sketchtool.</desc>
<g id="Page-1" sketch:type="MSPage">
	<g id="tweegs-impatto" transform="translate(-945.000000, -651.000000)" sketch:type="MSArtboardGroup">
		<path id="_x37_000_x5F_professionisti" sketch:type="MSShapeGroup" fill="#32303F" d="M979.896,899.979
			c-5.148,0-9.321-4.184-9.321-9.344V785.324c0-5.16,4.172-9.344,9.321-9.344s9.321,4.184,9.321,9.344v105.312
			C989.217,895.796,985.044,899.979,979.896,899.979L979.896,899.979z M1017.834,815.812c-5.148,0-9.321-4.184-9.321-9.34
			c0-5.16,4.173-9.341,9.321-9.341h29.442c5.145,0,9.321,4.181,9.321,9.341c0,5.156-4.177,9.34-9.321,9.34H1017.834z
			 M859.882,824.506c0-25.158,9.019-49.486,25.392-68.516c16.199-18.82,38.547-31.303,62.926-35.149
			c1.184-0.186,2.241-0.686,3.09-1.41c-17.997-4.002-31.496-20.124-31.496-39.348v-41.369c0-29.91,24.277-54.24,54.118-54.24h12.938
			c29.846,0,54.12,24.331,54.12,54.24v41.369c0,19.498-13.885,35.807-32.271,39.515c0.813,0.631,1.797,1.069,2.894,1.243
			c24.379,3.847,46.725,16.329,62.926,35.149c16.372,19.029,25.391,43.357,25.391,68.516v66.758
			c0,30.902-25.089,56.049-55.926,56.049c-5.145,0-9.32-4.184-9.32-9.344s4.176-9.345,9.32-9.345
			c20.56,0,37.284-16.759,37.284-37.36v-66.758c0-20.68-7.411-40.677-20.866-56.309c-13.318-15.477-31.682-25.743-51.71-28.896
			c-12.142-1.922-20.959-12.207-20.959-24.461v-3.798c0-5.159,4.173-9.342,9.321-9.342h3.703c11.897,0,21.571-9.697,21.571-21.617
			v-41.369c0-19.604-15.915-35.558-35.479-35.558h-12.938c-19.562,0-35.476,15.953-35.476,35.558v41.369
			c0,11.92,9.675,21.617,21.568,21.617h2.733c5.149,0,9.321,4.184,9.321,9.342v3.798c0,12.254-8.815,22.539-20.96,24.461
			c-20.025,3.153-38.388,13.42-51.708,28.896c-13.455,15.632-20.866,35.629-20.866,56.309v66.758
			c0,20.602,16.724,37.36,37.282,37.36c5.146,0,9.321,4.185,9.321,9.345s-4.174,9.344-9.321,9.344
			c-30.835,0-55.923-25.146-55.923-56.049V824.506z M841.465,481.264c-0.033-3.87,3.068-7.033,6.929-7.068L870.958,474h0.062
			c2.098,0,4.087,0.945,5.416,2.576c1.34,1.646,1.863,3.816,1.42,5.896l-11.281,52.921c-0.703,3.291-3.603,5.546-6.83,5.546
			c-0.484,0-0.974-0.053-1.468-0.157c-3.775-0.808-6.181-4.533-5.375-8.317l9.46-44.375l-13.846,0.12
			C844.642,488.202,841.498,485.134,841.465,481.264L841.465,481.264z M891.89,534.425c-1.734-1.748-2.722-4.149-2.722-6.605
			c0-2.466,0.988-4.868,2.722-6.615c1.733-1.738,4.137-2.728,6.589-2.728c2.46,0,4.866,0.99,6.6,2.728
			c1.733,1.747,2.731,4.149,2.731,6.615c0,2.456-0.998,4.858-2.731,6.605c-1.741,1.737-4.147,2.737-6.6,2.737
			C896.039,537.162,893.633,536.163,891.89,534.425L891.89,534.425z M1088.752,526.848c-8.597,0-15.593-8.05-15.593-17.947
			c0-9.896,6.996-17.946,15.593-17.946c8.6,0,15.593,8.05,15.593,17.946C1104.345,518.797,1097.352,526.848,1088.752,526.848
			L1088.752,526.848z M1088.752,476.942c-16.306,0-29.574,14.336-29.574,31.958c0,17.623,13.269,31.959,29.574,31.959
			c16.31,0,29.574-14.336,29.574-31.959C1118.326,491.278,1105.062,476.942,1088.752,476.942L1088.752,476.942z M1020.274,490.955
			c8.601,0,15.593,8.05,15.593,17.946c0,9.896-6.992,17.947-15.593,17.947c-8.597,0-15.593-8.05-15.593-17.947
			C1004.682,499.005,1011.678,490.955,1020.274,490.955L1020.274,490.955z M1020.274,540.86c16.31,0,29.574-14.336,29.574-31.959
			c0-17.623-13.265-31.958-29.574-31.958c-16.306,0-29.574,14.336-29.574,31.958C990.7,526.524,1003.969,540.86,1020.274,540.86
			L1020.274,540.86z M951.797,490.955c8.598,0,15.593,8.05,15.593,17.946c0,9.896-6.995,17.947-15.593,17.947
			s-15.593-8.05-15.593-17.947C936.205,499.005,943.199,490.955,951.797,490.955L951.797,490.955z M951.797,540.86
			c16.308,0,29.575-14.336,29.575-31.959c0-17.623-13.267-31.958-29.575-31.958s-29.574,14.336-29.574,31.958
			C922.223,526.524,935.49,540.86,951.797,540.86L951.797,540.86z"/>
	</g>
</g>
</svg>
