<?xml version="1.0" encoding="utf-8"?>
<!-- Generator: Adobe Illustrator 16.0.0, SVG Export Plug-In . SVG Version: 6.00 Build 0)  -->
<!DOCTYPE svg PUBLIC "-//W3C//DTD SVG 1.1//EN" "http://www.w3.org/Graphics/SVG/1.1/DTD/svg11.dtd">
<svg version="1.1" id="Layer_1" xmlns:sketch="http://www.bohemiancoding.com/sketch/ns"
	 xmlns="http://www.w3.org/2000/svg" xmlns:xlink="http://www.w3.org/1999/xlink" x="0px" y="0px" width="512px" height="512px"
	 viewBox="-211.5 -194.5 512 512" enable-background="new -211.5 -194.5 512 512" xml:space="preserve">
<title>40m_renovati</title>
<desc>Created with sketchtool.</desc>
<g id="Page-1" sketch:type="MSPage">
	<g id="tweegs-impatto" transform="translate(-151.000000, -1064.000000)" sketch:type="MSArtboardGroup">
		<g id="Group-3" transform="translate(0.000000, 908.000000)" sketch:type="MSLayerGroup">
			<path id="_x34_0m_x5F_renovati" sketch:type="MSShapeGroup" fill="#32303F" d="M244.065,377.097c0,3.733,3.022,6.763,6.751,6.763
				c3.726,0,6.748-3.029,6.748-6.763v-12.5h17.897v17.938h-8.951c-3.726,0-6.747,3.026-6.747,6.763s3.021,6.763,6.747,6.763h15.702
				c3.726,0,6.748-3.026,6.748-6.763V357.83c0-3.736-3.022-6.766-6.748-6.766h-31.396c-3.729,0-6.751,3.029-6.751,6.766V377.097z
				 M216.906,389.298V357.83c0-3.736-3.021-6.766-6.747-6.766h-31.396c-3.729,0-6.751,3.029-6.751,6.766v19.267
				c0,3.733,3.022,6.763,6.751,6.763c3.727,0,6.75-3.029,6.75-6.763v-12.5h17.896v17.938h-8.947c-3.728,0-6.75,3.026-6.75,6.763
				s3.022,6.763,6.75,6.763h15.698C213.885,396.061,216.906,393.034,216.906,389.298L216.906,389.298z M266.511,312.004
				c-3.726,0-6.747,3.025-6.747,6.766c0,3.733,3.021,6.763,6.747,6.763h15.702c3.726,0,6.748-3.029,6.748-6.763v-31.471
				c0-3.733-3.022-6.763-6.748-6.763h-31.396c-3.729,0-6.751,3.029-6.751,6.763v19.263c0,3.74,3.022,6.767,6.751,6.767
				c3.726,0,6.748-3.026,6.748-6.767v-12.496h17.897v17.938H266.511z M194.461,312.004c-3.728,0-6.75,3.025-6.75,6.766
				c0,3.733,3.022,6.763,6.75,6.763h15.698c3.726,0,6.747-3.029,6.747-6.763v-31.471c0-3.733-3.021-6.763-6.747-6.763h-31.396
				c-3.729,0-6.751,3.029-6.751,6.763v19.263c0,3.74,3.022,6.767,6.751,6.767c3.727,0,6.75-3.026,6.75-6.767v-12.496h17.896v17.938
				H194.461z M243.553,197.729c-3.726,0-6.747,3.028-6.747,6.765c0,3.736,3.021,6.765,6.747,6.765h21.088
				c3.726,0,6.748-3.028,6.748-6.765v-42.262c0-3.737-3.022-6.766-6.748-6.766h-42.168c-3.729,0-6.752,3.029-6.752,6.766v25.872
				c0,3.735,3.022,6.764,6.752,6.764c3.725,0,6.747-3.029,6.747-6.764v-19.107h28.67v28.733H243.553z M146.781,197.729
				c-3.727,0-6.75,3.028-6.75,6.765c0,3.736,3.022,6.765,6.75,6.765h21.084c3.727,0,6.75-3.028,6.75-6.765v-42.262
				c0-3.737-3.022-6.766-6.75-6.766h-42.167c-3.727,0-6.75,3.029-6.75,6.766v25.872c0,3.735,3.022,6.764,6.75,6.764
				c3.728,0,6.75-3.029,6.75-6.764v-19.107h28.668v28.733H146.781z M301.977,102.657H88.36c-11.492,0-20.841,9.372-20.841,20.89
				v306.715c0,6.153,2.633,11.641,7.412,15.452c4.46,3.557,10.626,5.441,17.832,5.441h42.558c11.488,0,20.835-9.373,20.835-20.894
				V258.79c0-1.571,1.276-2.851,2.843-2.851h142.978c1.563,0,2.843,1.279,2.843,2.851v171.472c0,1.575-1.279,2.851-2.843,2.851
				h-94.503l0,0c-4.975,0-8.999,4.039-8.999,9.021s4.024,9.021,8.999,9.021l0,0h94.503h11.842c4.968,0,9-4.039,9-9.021v-11.872
				V258.79v-11.868c0-4.982-4.032-9.019-9-9.019c-1.697,0-3.276,0.476-4.626,1.291c-2.248-0.834-4.68-1.291-7.216-1.291H158.999
				c-11.492,0-20.841,9.366-20.841,20.887v171.472c0,1.575-1.273,2.851-2.837,2.851H92.763c-0.295,0-7.245-0.03-7.245-2.851V123.546
				c0-1.571,1.275-2.85,2.843-2.85h213.616c1.563,0,2.843,1.279,2.843,2.85v73.674c0,4.982,4.024,9.02,8.999,9.02
				c4.968,0,9-4.038,9-9.02v-73.674C322.818,112.028,313.467,102.657,301.977,102.657L301.977,102.657z M158.443,41.397
				c1.674-1.678,2.637-4.004,2.637-6.377c0-2.372-0.963-4.698-2.637-6.377C156.77,26.958,154.448,26,152.081,26
				c-2.366,0-4.688,0.958-6.362,2.643c-1.674,1.68-2.637,4.006-2.637,6.377c0,2.374,0.963,4.7,2.637,6.377s3.996,2.643,6.362,2.643
				C154.448,44.04,156.77,43.075,158.443,41.397L158.443,41.397z M350.837,16.756c0-9.553-6.751-17.325-15.055-17.325
				c-8.3,0-15.052,7.772-15.052,17.325c0,9.555,6.752,17.327,15.052,17.327C344.086,34.083,350.837,26.311,350.837,16.756
				L350.837,16.756z M364.336,16.756c0,17.013-12.807,30.856-28.554,30.856c-15.743,0-28.554-13.843-28.554-30.856
				c0-17.015,12.811-30.856,28.554-30.856C351.529-14.1,364.336-0.259,364.336,16.756L364.336,16.756z M269.668,34.083
				c8.304,0,15.055-7.772,15.055-17.327c0-9.553-6.751-17.325-15.055-17.325c-8.3,0-15.055,7.772-15.055,17.325
				C254.613,26.311,261.368,34.083,269.668,34.083L269.668,34.083z M269.668,47.612c-15.743,0-28.554-13.843-28.554-30.856
				c0-17.015,12.811-30.856,28.554-30.856c15.747,0,28.554,13.841,28.554,30.856C298.222,33.769,285.415,47.612,269.668,47.612
				L269.668,47.612z M188.5,16.756c0,9.555,6.753,17.327,15.053,17.327c8.304,0,15.055-7.772,15.055-17.327
				c0-9.553-6.751-17.325-15.055-17.325C195.254-0.569,188.5,7.203,188.5,16.756L188.5,16.756z M175.001,16.756
				c0-17.015,12.809-30.856,28.552-30.856c15.747,0,28.554,13.841,28.554,30.856c0,17.013-12.807,30.856-28.554,30.856
				C187.811,47.612,175.001,33.769,175.001,16.756L175.001,16.756z M104.382,34.083c8.301,0,15.055-7.772,15.055-17.327
				c0-9.553-6.753-17.325-15.055-17.325c-8.3,0-15.055,7.772-15.055,17.325C89.327,26.311,96.083,34.083,104.382,34.083
				L104.382,34.083z M104.382,47.612c-15.743,0-28.554-13.843-28.554-30.856c0-17.015,12.811-30.856,28.554-30.856
				c15.745,0,28.554,13.841,28.554,30.856C132.936,33.769,120.127,47.612,104.382,47.612L104.382,47.612z M67.341,20.302v20.546
				c0,3.736-3.022,6.764-6.749,6.764c-3.728,0-6.75-3.028-6.75-6.764V27.066H32.749c-2.396,0-4.612-1.273-5.824-3.346
				c-1.21-2.072-1.236-4.633-0.063-6.727l17.042-30.475c1.824-3.262,5.938-4.421,9.188-2.594c3.252,1.827,4.41,5.949,2.588,9.208
				L44.269,13.536h16.323C64.319,13.536,67.341,16.565,67.341,20.302L67.341,20.302z"/>
		</g>
	</g>
</g>
</svg>
