<?xml version="1.0" encoding="utf-8"?>
<!-- Generator: Adobe Illustrator 16.0.0, SVG Export Plug-In . SVG Version: 6.00 Build 0)  -->
<!DOCTYPE svg PUBLIC "-//W3C//DTD SVG 1.1//EN" "http://www.w3.org/Graphics/SVG/1.1/DTD/svg11.dtd">
<svg version="1.1" id="Layer_1" xmlns:sketch="http://www.bohemiancoding.com/sketch/ns"
	 xmlns="http://www.w3.org/2000/svg" xmlns:xlink="http://www.w3.org/1999/xlink" x="0px" y="0px" width="512px" height="512px"
	 viewBox="-222.5 -196.5 512 512" enable-background="new -222.5 -196.5 512 512" xml:space="preserve">
<title>x2_sede</title>
<desc>Created with sketchtool.</desc>
<g id="Page-1" sketch:type="MSPage">
	<g id="tweegs-impatto" transform="translate(-426.000000, -650.000000)" sketch:type="MSArtboardGroup">
		<path id="x2_sede" sketch:type="MSShapeGroup" fill="#32303F" d="M392.594,531.453c1.36,1.362,3.143,2.043,4.923,2.043
			c1.782,0,3.563-0.681,4.923-2.043l13.684-13.716l13.686,13.716c1.358,1.362,3.141,2.043,4.923,2.043
			c1.782,0,3.563-0.681,4.923-2.043c2.718-2.728,2.718-7.146,0-9.87l-13.684-13.716l13.684-13.714c2.718-2.726,2.718-7.144,0-9.868
			c-2.718-2.724-7.128-2.724-9.847,0l-13.686,13.714l-13.684-13.714c-2.718-2.724-7.126-2.724-9.846,0
			c-2.718,2.724-2.718,7.142,0,9.868l13.684,13.714l-13.684,13.716C389.876,524.307,389.876,528.725,392.594,531.453
			L392.594,531.453z M476.877,505.575c3.843,0,6.961-3.125,6.961-6.98c0-5.583,4.529-10.124,10.101-10.124
			s10.102,4.541,10.102,10.124c0,1.929-2.972,7.778-14.11,17.467c-7.875,6.854-15.923,12.239-16,12.291
			c-2.562,1.704-3.704,4.883-2.816,7.831c0.887,2.944,3.596,4.96,6.667,4.96h39.644c3.848,0,6.965-3.124,6.965-6.978
			s-3.117-6.978-6.965-6.978h-19.04c0.185-0.164,0.378-0.328,0.566-0.492c12.972-11.264,19.015-20.192,19.015-28.1
			c0-13.278-10.776-24.08-24.026-24.08c-13.249,0-24.025,10.801-24.025,24.08C469.913,502.45,473.03,505.575,476.877,505.575
			L476.877,505.575z M509.766,868.025c0,3.858,3.117,6.979,6.964,6.979s6.965-3.121,6.965-6.979v-12.891h18.458v18.5h-9.229
			c-3.843,0-6.96,3.126-6.96,6.98s3.117,6.979,6.96,6.979h16.193c3.847,0,6.965-3.125,6.965-6.979v-32.46
			c0-3.854-3.118-6.977-6.965-6.977h-32.387c-3.847,0-6.964,3.122-6.964,6.977V868.025z M435.441,868.025
			c0,3.858,3.117,6.979,6.962,6.979c3.847,0,6.962-3.121,6.962-6.979v-12.891h18.46v18.5h-9.229c-3.845,0-6.96,3.126-6.96,6.98
			s3.115,6.979,6.96,6.979h16.193c3.847,0,6.964-3.125,6.964-6.979v-32.46c0-3.854-3.117-6.977-6.964-6.977h-32.387
			c-3.845,0-6.962,3.122-6.962,6.977V868.025z M532.923,800.883c-3.843,0-6.96,3.125-6.96,6.976c0,3.858,3.117,6.979,6.96,6.979
			h16.193c3.847,0,6.965-3.121,6.965-6.979v-32.456c0-3.858-3.118-6.979-6.965-6.979h-32.387c-3.847,0-6.964,3.121-6.964,6.979
			v19.87c0,3.851,3.117,6.977,6.964,6.977s6.965-3.126,6.965-6.977v-12.895h18.458v18.505H532.923z M458.597,800.883
			c-3.845,0-6.96,3.125-6.96,6.976c0,3.858,3.115,6.979,6.96,6.979h16.193c3.847,0,6.964-3.121,6.964-6.979v-32.456
			c0-3.858-3.117-6.979-6.964-6.979h-32.387c-3.845,0-6.962,3.121-6.962,6.979v19.87c0,3.851,3.117,6.977,6.962,6.977
			c3.847,0,6.962-3.126,6.962-6.977v-12.895h18.46v18.505H458.597z M509.24,683.003c-3.843,0-6.96,3.124-6.96,6.98
			c0,3.853,3.117,6.978,6.96,6.978h21.746c3.851,0,6.964-3.125,6.964-6.978v-43.597c0-3.854-3.113-6.978-6.964-6.978h-43.495
			c-3.847,0-6.964,3.123-6.964,6.978v26.688c0,3.854,3.117,6.978,6.964,6.978s6.965-3.123,6.965-6.978v-19.71h29.569v29.64H509.24z
			 M409.415,683.003c-3.845,0-6.962,3.124-6.962,6.98c0,3.853,3.118,6.978,6.962,6.978h21.75c3.845,0,6.962-3.125,6.962-6.978
			v-43.597c0-3.854-3.117-6.978-6.962-6.978h-43.499c-3.845,0-6.96,3.123-6.96,6.978v26.688c0,3.854,3.116,6.978,6.96,6.978
			c3.847,0,6.964-3.123,6.964-6.978v-19.71h29.572v29.64H409.415z M327.653,922.875V606.483c0-11.881,9.644-21.548,21.499-21.548
			h220.353c11.856,0,21.498,9.667,21.498,21.548v75.996c0,5.139-4.155,9.304-9.283,9.304c-5.127,0-9.283-4.165-9.283-9.304v-75.996
			c0-1.622-1.315-2.942-2.932-2.942H349.151c-1.617,0-2.932,1.32-2.932,2.942v316.392c0,2.905,7.168,2.94,7.474,2.94h43.898
			c1.615,0,2.926-1.319,2.926-2.94V745.994c0-11.883,9.646-21.553,21.5-21.553h147.486c2.616,0,5.124,0.475,7.442,1.336
			c1.396-0.842,3.025-1.336,4.772-1.336c5.128,0,9.283,4.168,9.283,9.307v12.246v176.881v12.242c0,5.14-4.155,9.303-9.283,9.303
			h-12.215H472.02c-5.128,0-9.283-4.163-9.283-9.303c0-5.135,4.155-9.302,9.283-9.302h97.484c1.616,0,2.932-1.319,2.932-2.94
			V745.994c0-1.624-1.315-2.939-2.932-2.939H422.018c-1.618,0-2.934,1.315-2.934,2.939v176.881c0,11.88-9.64,21.545-21.493,21.545
			h-43.898c-7.433,0-13.793-1.937-18.395-5.61C330.369,934.878,327.653,929.218,327.653,922.875L327.653,922.875z"/>
	</g>
</g>
</svg>
