<?xml version="1.0" encoding="utf-8"?>
<!-- Generator: Adobe Illustrator 16.0.4, SVG Export Plug-In . SVG Version: 6.00 Build 0)  -->
<!DOCTYPE svg PUBLIC "-//W3C//DTD SVG 1.1//EN" "http://www.w3.org/Graphics/SVG/1.1/DTD/svg11.dtd">
<svg version="1.1" id="Layer_1" xmlns="http://www.w3.org/2000/svg" xmlns:xlink="http://www.w3.org/1999/xlink" x="0px" y="0px"
	 width="512px" height="512px" viewBox="0 0 512 512" enable-background="new 0 0 512 512" xml:space="preserve">
<g>
	<path d="M398.941,508.737h-68.975c-8.692,0-15.737-7.045-15.737-15.737V222.505c0-3.578-2.907-6.485-6.485-6.485
		c-0.362,0-38.403-0.043-76.604-0.08l-77.55-0.086c-3.35,0-6.08,2.735-6.08,6.098c0,3.356,2.729,6.092,6.08,6.092h27.946
		c8.693,0,15.738,7.045,15.738,15.737v249.213c0,8.692-7.045,15.737-15.738,15.737h-69.104c-8.693,0-15.738-7.045-15.738-15.737
		c0-8.693,7.045-15.738,15.738-15.738h53.366V259.519H153.59c-20.711,0-37.555-16.85-37.555-37.567
		c0-20.717,16.844-37.573,37.555-37.573c0.369,0,39.055,0.043,77.581,0.086l76.573,0.08c20.933,0,37.961,17.028,37.961,37.96
		v254.757h53.236c8.693,0,15.738,7.046,15.738,15.738S407.635,508.737,398.941,508.737z"/>
</g>
<g>
	<path d="M274.025,151.446c-6.043,0-11.81-3.504-14.403-9.394c-3.51-7.955,0.099-17.243,8.047-20.748
		c16.45-7.254,27.079-23.557,27.079-41.532c0-25.014-20.348-45.368-45.355-45.368c-25.014,0-45.362,20.354-45.362,45.368
		c0,17.852,10.537,34.106,26.84,41.416c7.93,3.553,11.478,12.867,7.924,20.797c-3.553,7.93-12.866,11.471-20.797,7.924
		c-27.602-12.375-45.442-39.903-45.442-70.136c0-42.375,34.469-76.843,76.837-76.843c42.362,0,76.831,34.469,76.831,76.843
		c0,30.442-18,58.051-45.854,70.327C278.304,151.016,276.146,151.446,274.025,151.446z"/>
</g>
</svg>
