<?xml version="1.0" encoding="utf-8"?>
<!-- Generator: Adobe Illustrator 16.0.0, SVG Export Plug-In . SVG Version: 6.00 Build 0)  -->
<!DOCTYPE svg PUBLIC "-//W3C//DTD SVG 1.1//EN" "http://www.w3.org/Graphics/SVG/1.1/DTD/svg11.dtd">
<svg version="1.1" id="Layer_1" xmlns="http://www.w3.org/2000/svg" xmlns:xlink="http://www.w3.org/1999/xlink" x="0px" y="0px"
	 width="512px" height="512px" viewBox="244 244 512 512" enable-background="new 244 244 512 512" xml:space="preserve">
<path d="M263.509,310.115c9.437-25.573,27.529-38.407,54.382-38.407l17.687,1.78c27.205,9.045,40.766,26.208,40.766,51.403
	l-1.159,11.822c-9.491,27.177-26.584,40.794-51.443,40.794h-10.649l-12.996-1.793c-25.56-9.045-38.394-26.004-38.394-50.822v-2.359
	L263.509,310.115z M268.201,420.053v307.271h101.081V420.053H268.201z M528.814,462.585h-1.186v-42.532H426.575v307.271h101.054
	V568.949c0-30.318,4.731-48.68,14.223-54.947c11.432-13.778,24.157-20.707,38.394-20.707h7.063
	c22.863,0,38.231,13.629,46.104,40.807c1.564,10.636,2.372,20.073,2.372,28.35v164.872h102.24V558.893
	c0-74.44-24.644-120.734-73.875-138.839c-16.556-4.773-31.923-7.091-46.105-7.091C581.431,412.961,551.664,429.502,528.814,462.585z
	"/>
</svg>
