<?xml version="1.0" encoding="utf-8"?>
<!-- Generator: Adobe Illustrator 16.0.4, SVG Export Plug-In . SVG Version: 6.00 Build 0)  -->
<!DOCTYPE svg PUBLIC "-//W3C//DTD SVG 1.1//EN" "http://www.w3.org/Graphics/SVG/1.1/DTD/svg11.dtd">
<svg version="1.1" id="Layer_1" xmlns="http://www.w3.org/2000/svg" xmlns:xlink="http://www.w3.org/1999/xlink" x="0px" y="0px"
	 width="512px" height="512px" viewBox="0 0 512 512" enable-background="new 0 0 512 512" xml:space="preserve">
<path d="M439.785,442.938H71.591c-37.712,0-68.394-37.688-68.394-84.019V164.352c0-8.705,7.055-15.76,15.759-15.76
	c8.705,0,15.76,7.055,15.76,15.76V358.92c0,28.46,16.886,52.499,36.875,52.499h368.194c19.988,0,36.875-24.039,36.875-52.499
	V115.965L265.242,277.192c-5.639,4.297-13.47,4.297-19.108,0L9.402,96.659c-5.38-4.1-7.541-11.173-5.374-17.575
	c2.161-6.409,8.169-10.718,14.928-10.718h351.062c8.704,0,15.76,7.055,15.76,15.76c0,8.705-7.056,15.759-15.76,15.759H65.613
	l190.075,144.957l227.177-173.25c4.759-3.626,11.18-4.241,16.548-1.588s8.766,8.132,8.766,14.122V358.92
	C508.179,405.251,477.497,442.938,439.785,442.938z"/>
</svg>
