<?xml version="1.0" encoding="utf-8"?>
<!-- Generator: Adobe Illustrator 16.0.4, SVG Export Plug-In . SVG Version: 6.00 Build 0)  -->
<!DOCTYPE svg PUBLIC "-//W3C//DTD SVG 1.1//EN" "http://www.w3.org/Graphics/SVG/1.1/DTD/svg11.dtd">
<svg version="1.1" id="Layer_1" xmlns="http://www.w3.org/2000/svg" xmlns:xlink="http://www.w3.org/1999/xlink" x="0px" y="0px"
	 width="512px" height="512px" viewBox="0 0 512 512" enable-background="new 0 0 512 512" xml:space="preserve">
<path d="M452.746,214.861c4.814-75.826-30.838-149.035-97.329-187.617c-15.758-9.143-32.78-16.068-50.431-20.572
	c-7.851-2.003-18.713-6.007-26.666-2.897c-9.553,3.735-13.102,15.888-7.074,24.186c5.444,7.497,16.02,7.145,24.195,9.146
	c8.927,2.185,17.674,5.102,26.12,8.725c17.807,7.639,34.231,18.424,48.31,31.738c119.387,112.912,5.907,274.664-81.467,365.276
	c-8.159,8.463-16.516,16.754-25.222,24.657c-2.239,2.033-6.459,7.647-8.958,5.39c-4.235-3.829-8.348-7.794-12.407-11.809
	c-24.526-24.259-47.331-50.384-68.432-77.663c-48.694-62.952-100.141-142.977-79.193-226.089
	c9.082-36.032,30.418-68.459,59.955-91.013c14.298-10.917,30.377-19.458,47.419-25.216c13.041-4.406,49.522-5.921,38.971-29.038
	c-13.091-28.683-84.685,13.799-100.534,25.091c-30.095,21.442-53.817,51.356-67.856,85.536
	c-35.85,87.281,1.816,174.186,51.753,247.12c26.242,38.327,56.229,74.39,88.869,107.426c13.115,13.274,32.448,41.119,53.398,28.069
	c22.315-13.9,40.767-35.618,58.315-54.862c13.543-14.851,26.822-29.97,39.202-45.81c42.422-54.275,83.595-119.813,89.19-189.759
	C452.833,214.872,452.79,214.867,452.746,214.861z"/>
<path d="M255.37,258.958c-83.992,0-118.139-112.934-47.79-159.346c7.098-4.683,16.152-10.671,24.96-7.253
	c8.084,3.137,12.222,12.514,9.087,20.6c-3.326,8.58-13.533,10.642-20.207,15.887c-7.08,5.564-12.742,12.868-16.374,21.108
	c-15.745,35.728,11.318,77.169,50.322,77.169c37.101,0,64.096-37.769,52.002-72.881c-2.916-8.465-7.912-16.176-14.446-22.296
	c-6.27-5.873-16.611-8.4-21.535-15.305c-5.027-7.047-3.375-17.172,3.69-22.21c9.474-6.755,20.221-0.062,28.436,5.419
	C373.437,146.502,339.177,258.958,255.37,258.958z"/>
</svg>
