<?xml version="1.0" encoding="utf-8"?>
<!-- Generator: Adobe Illustrator 16.0.0, SVG Export Plug-In . SVG Version: 6.00 Build 0)  -->
<!DOCTYPE svg PUBLIC "-//W3C//DTD SVG 1.1//EN" "http://www.w3.org/Graphics/SVG/1.1/DTD/svg11.dtd">
<svg version="1.1" id="Layer_1" xmlns:sketch="http://www.bohemiancoding.com/sketch/ns"
	 xmlns="http://www.w3.org/2000/svg" xmlns:xlink="http://www.w3.org/1999/xlink" x="0px" y="0px" width="512px" height="512px"
	 viewBox="-246 -246 512 512" enable-background="new -246 -246 512 512" xml:space="preserve">
<title>message</title>
<desc>Created with Sketch.</desc>
<g id="Page-1" sketch:type="MSPage">
	<g id="tweegs-pagina-produttore-profilo" transform="translate(-896.000000, -678.000000)" sketch:type="MSArtboardGroup">
		<path id="message" sketch:type="MSShapeGroup" fill="#32303F" d="M1133.221,892.42c3.832,4.177,5.094,10.121,3.235,15.514
			c-1.836,5.37-6.472,9.295-12.071,10.258c-13.586,2.25-27.471,3.396-41.285,3.396c-56.318,0-109.469-18.565-150.433-52.461
			c-8.858,0.895-17.809,1.33-26.667,1.33c-80.127,0-153.943-35.57-197.467-95.193c-5.049-6.885-3.534-16.568,3.374-21.617
			c6.907-5.049,16.592-3.535,21.641,3.35c37.706,51.659,102.182,82.48,172.452,82.48c9.868,0,19.852-0.62,29.65-1.859
			c4.43-0.574,8.858,0.803,12.209,3.74c35.984,31.762,83.994,49.272,135.24,49.272c2.868,0,5.736-0.069,8.605-0.161
			c-20.425-28.318-34.264-60.287-40.506-93.816c-0.963-5.186,0.781-10.51,4.613-14.137c34.975-32.816,54.206-75.479,54.206-120.139
			c0-97.649-91.521-177.099-204.019-177.099s-204.019,79.45-204.019,177.099c0,8.56-6.942,15.491-15.491,15.491
			c-8.56,0-15.491-6.931-15.491-15.491c0-114.735,105.417-208.081,235-208.081c129.571,0,235,93.346,235,208.081
			c0,50.512-20.425,98.705-57.694,136.594C1091.2,833.188,1108.32,865.363,1133.221,892.42"/>
	</g>
</g>
</svg>
