<?xml version="1.0" encoding="utf-8"?>
<!-- Generator: Adobe Illustrator 16.0.0, SVG Export Plug-In . SVG Version: 6.00 Build 0)  -->
<!DOCTYPE svg PUBLIC "-//W3C//DTD SVG 1.1//EN" "http://www.w3.org/Graphics/SVG/1.1/DTD/svg11.dtd">
<svg version="1.1" id="Layer_1" xmlns:sketch="http://www.bohemiancoding.com/sketch/ns"
	 xmlns="http://www.w3.org/2000/svg" xmlns:xlink="http://www.w3.org/1999/xlink" x="0px" y="0px" width="512px" height="512px"
	 viewBox="-187 -187 512 512" enable-background="new -187 -187 512 512" xml:space="preserve">
<title>mission</title>
<desc>Created with sketchtool.</desc>
<g id="Page-1" sketch:type="MSPage">
	<g id="tweegs-lavoro" transform="translate(-826.000000, -1059.000000)" sketch:type="MSArtboardGroup">
		<g id="Group" transform="translate(826.000000, 1059.000000)" sketch:type="MSLayerGroup">
			<path id="mission" sketch:type="MSShapeGroup" fill="#32303F" d="M31.583,53.891c4.367-1.238,6.903-5.781,5.667-10.15
				c-1.239-4.366-5.778-6.9-10.15-5.666C1.862,45.228-15.763,68.554-15.763,94.798c0,32.513,26.452,58.965,58.965,58.965
				c26.242,0,49.566-17.627,56.721-42.861c1.238-4.367-1.298-8.908-5.665-10.149c-4.367-1.234-8.912,1.298-10.15,5.665
				c-5.158,18.197-21.979,30.906-40.905,30.906c-23.45,0-42.527-19.075-42.527-42.525C0.675,75.869,13.384,59.05,31.583,53.891
				 M92.521-13.141c4.126,1.887,9.003,0.075,10.895-4.052c1.885-4.129,0.073-9.004-4.056-10.895
				c-17.687-8.096-36.58-12.2-56.157-12.2c-74.485,0-135.083,60.6-135.083,135.085s60.599,135.083,135.083,135.083
				c74.485,0,135.084-60.598,135.084-135.083c0-19.579-4.103-38.47-12.2-56.157c-1.888-4.129-6.769-5.942-10.891-4.054
				c-4.13,1.89-5.944,6.767-4.056,10.895c7.104,15.523,10.707,32.119,10.707,49.316c0,65.419-53.226,118.645-118.645,118.645
				c-65.42,0-118.644-53.226-118.644-118.645c0-65.422,53.224-118.646,118.644-118.646C60.403-23.848,76.997-20.246,92.521-13.141
				 M210.209-20.883c-3.828,2.435-4.958,7.515-2.522,11.348c19.81,31.161,30.282,67.24,30.282,104.333
				c0,52.021-20.26,100.934-57.05,137.717c-36.783,36.786-85.695,57.046-137.717,57.046c-52.023,0-100.934-20.26-137.72-57.046
				c-36.785-36.783-57.043-85.695-57.043-137.717c0-52.023,20.258-100.934,57.044-137.718
				C-57.731-79.707-8.821-99.967,43.202-99.967c37.095,0,73.174,10.472,104.335,30.282c3.831,2.436,8.909,1.303,11.344-2.527
				c2.436-3.831,1.306-8.911-2.525-11.346c-33.801-21.489-72.932-32.847-113.153-32.847c-56.414,0-109.452,21.967-149.342,61.858
				C-146.031-14.654-168,38.384-168,94.798c0,56.416,21.969,109.453,61.86,149.343C-66.25,284.029-13.212,306,43.202,306
				c56.416,0,109.454-21.971,149.343-61.859c39.889-39.89,61.859-92.927,61.859-149.343c0-40.221-11.357-79.349-32.845-113.153
				C219.121-22.188,214.042-23.318,210.209-20.883 M306-84.948c0,4.54-3.683,8.22-8.222,8.22h-71.426L49.015,100.61
				c-1.606,1.604-3.71,2.409-5.813,2.409s-4.206-0.806-5.813-2.409c-3.208-3.21-3.208-8.415,0-11.626L214.727-88.353v-71.428
				c0-4.538,3.68-8.22,8.222-8.22c4.538,0,8.218,3.682,8.218,8.22v54.988l33.697-33.699c3.213-3.208,8.416-3.208,11.626,0
				c3.21,3.212,3.21,8.416,0,11.625l-33.697,33.7h54.986C302.317-93.166,306-89.486,306-84.948"/>
		</g>
	</g>
</g>
</svg>
