<?xml version="1.0" encoding="utf-8"?>
<!-- Generator: Adobe Illustrator 16.0.0, SVG Export Plug-In . SVG Version: 6.00 Build 0)  -->
<!DOCTYPE svg PUBLIC "-//W3C//DTD SVG 1.1//EN" "http://www.w3.org/Graphics/SVG/1.1/DTD/svg11.dtd">
<svg version="1.1" id="Layer_1" xmlns:sketch="http://www.bohemiancoding.com/sketch/ns"
	 xmlns="http://www.w3.org/2000/svg" xmlns:xlink="http://www.w3.org/1999/xlink" x="0px" y="0px" width="512px" height="512px"
	 viewBox="-240.5 -240.5 512 512" enable-background="new -240.5 -240.5 512 512" xml:space="preserve">
<title>ok</title>
<desc>Created with sketchtool.</desc>
<g id="Page-1" sketch:type="MSPage">
	<g id="tweegs-impatto" transform="translate(-268.000000, -641.000000)" sketch:type="MSArtboardGroup">
		<path id="ok" sketch:type="MSShapeGroup" fill="#47A948" d="M183.411,659.146c-8.561-4.844-19.429-1.832-24.273,6.729
			c-4.852,8.562-1.84,19.438,6.729,24.274l135.88,76.916c2.701,1.544,5.728,2.315,8.77,2.315c2.715,0,5.445-0.623,7.938-1.87
			c5.312-2.641,8.947-7.745,9.719-13.62l0.608-4.659c13.502-102.57,56.679-197.938,124.841-275.767
			c6.484-7.403,5.742-18.65-1.662-25.134c-7.389-6.484-18.65-5.742-25.134,1.662c-68.073,77.733-112.823,171.816-130.138,273.273
			L183.411,659.146z M372.075,874.681c-28.888,11.736-58.785,17.286-88.215,17.286c-93.053,0-181.372-55.521-218.458-146.92
			c-23.643-58.28-23.183-122.259,1.306-180.184c24.482-57.925,70.054-102.852,128.328-126.496
			c43.533-17.664,90.761-21.929,136.563-12.344c9.629,2.018,15.801,11.454,13.783,21.091c-2.003,9.622-11.439,15.809-21.084,13.777
			c-38.852-8.131-78.912-4.503-115.872,10.49c-49.453,20.067-88.126,58.192-108.914,107.348
			c-20.772,49.163-21.165,103.468-1.098,152.936c31.47,77.54,106.428,124.663,185.399,124.663c24.979,0,50.336-4.704,74.877-14.659
			c102.08-41.426,151.429-158.181,110.003-260.276c-3.693-9.11,0.698-19.504,9.823-23.198c9.11-3.702,19.496,0.69,23.205,9.808
			C550.523,688.295,492.376,825.866,372.075,874.681L372.075,874.681z"/>
	</g>
</g>
</svg>
