<?xml version="1.0" encoding="utf-8"?>
<!-- Generator: Adobe Illustrator 16.0.0, SVG Export Plug-In . SVG Version: 6.00 Build 0)  -->
<!DOCTYPE svg PUBLIC "-//W3C//DTD SVG 1.1//EN" "http://www.w3.org/Graphics/SVG/1.1/DTD/svg11.dtd">
<svg version="1.1" id="Layer_1" xmlns:sketch="http://www.bohemiancoding.com/sketch/ns"
	 xmlns="http://www.w3.org/2000/svg" xmlns:xlink="http://www.w3.org/1999/xlink" x="0px" y="0px" width="512px" height="512px"
	 viewBox="-246 -245.5 512 512" enable-background="new -246 -245.5 512 512" xml:space="preserve">
<title>phone</title>
<desc>Created with Sketch.</desc>
<g id="Page-1" sketch:type="MSPage">
	<g id="tweegs-pagina-produttore-profilo" transform="translate(-896.000000, -542.000000)" sketch:type="MSArtboardGroup">
		<path id="phone" sketch:type="MSShapeGroup" fill="#32303F" d="M1118.67,723.496l-2.279,2.301
			c-9.971,9.994-20.234,20.349-31.74,29.485c-23.643,18.813-49.473,28.334-76.137,28.334c-12.633,0-25.447-2.12-38.306-6.407
			c-16.987-5.684-32.462-14.438-47.419-22.896c-3.609-2.053-7.23-4.084-10.852-6.068l-0.846-0.496l-2.143-1.377
			c-36.467-23.213-70.712-50.217-101.787-80.242c-6.08-5.865-6.237-15.566-0.372-21.611c5.865-6.092,15.543-6.25,21.611-0.385
			c29.598,28.628,62.218,54.346,96.96,76.453l1.736,1.083c3.587,1.985,7.151,4.016,10.738,6.046
			c14.324,8.076,27.86,15.746,42.05,20.484c30.207,10.061,59.038,4.398,85.747-16.83c10.107-8.031,19.311-17.303,29.057-27.115
			l2.323-2.324c11.866-11.911,12.61-24.115,2.323-37.29c-15.904-20.304-37.335-37.313-67.451-53.578
			c-8.438-4.557-15.115-4.985-24.363,6.339c-4.918,6.047-9.43,11.258-13.807,15.973c-23.236,25.221-50.984,26.619-76.069,3.789
			c-9.001-8.166-17.562-16.828-25.841-25.221c-2.741-2.752-5.482-5.549-8.246-8.302c-4.918-4.917-9.836-9.813-14.765-14.708
			c-15.498-15.465-31.538-31.437-47.081-47.454c-11.787-12.148-17.596-25.097-17.269-38.508c0.338-13.49,6.858-26.259,19.378-37.967
			c5.876-5.482,11.889-10.445,16.987-14.573c11.55-9.339,10.129-14.991,7.264-20.901c-16.141-33.365-35.688-57.605-59.737-74.107
			c-8.775-6.023-17.957-5.843-25.853,0.519c-22.729,18.307-37.132,34.628-46.708,52.924
			c-10.817,20.664-22.706,63.729,19.119,120.003c5.042,6.779,3.632,16.355-3.147,21.386c-6.779,5.03-16.344,3.632-21.386-3.147
			c-37.832-50.894-45.727-106.445-21.668-152.421c15.047-28.751,38.384-49.472,54.616-62.556
			c18.476-14.878,42.355-15.611,62.331-1.906c28.548,19.592,51.435,47.712,69.956,85.995c13.05,26.969-1.263,46.416-15.555,57.977
			c-4.692,3.79-10.174,8.324-15.351,13.152c-6.306,5.888-9.554,11.392-9.678,16.378c-0.124,4.896,2.786,10.434,8.64,16.457
			c15.363,15.836,31.301,31.729,46.72,47.081c4.94,4.918,9.87,9.847,14.799,14.765c2.808,2.798,5.594,5.617,8.38,8.437
			c7.998,8.076,16.276,16.469,24.668,24.094c12.725,11.551,21.07,11.1,33.027-1.895c3.947-4.287,8.076-9.047,12.588-14.574
			c17.416-21.363,39.658-26.304,62.557-13.941c33.951,18.341,58.428,37.945,76.994,61.654
			C1143.102,671.002,1141.297,700.779,1118.67,723.496"/>
	</g>
</g>
</svg>
