<?xml version="1.0" encoding="utf-8"?>
<!-- Generator: Adobe Illustrator 16.0.0, SVG Export Plug-In . SVG Version: 6.00 Build 0)  -->
<!DOCTYPE svg PUBLIC "-//W3C//DTD SVG 1.1//EN" "http://www.w3.org/Graphics/SVG/1.1/DTD/svg11.dtd">
<svg version="1.1" id="Layer_1" xmlns:sketch="http://www.bohemiancoding.com/sketch/ns"
	 xmlns="http://www.w3.org/2000/svg" xmlns:xlink="http://www.w3.org/1999/xlink" x="0px" y="0px" width="512px" height="512px"
	 viewBox="-238 -241.5 512 512" enable-background="new -238 -241.5 512 512" xml:space="preserve">
<title>play</title>
<desc>Created with Sketch.</desc>
<g id="Page-1" sketch:type="MSPage">
	<g id="tweegs-pagina-produttore-profilo" transform="translate(-414.000000, -1384.000000)" sketch:type="MSArtboardGroup">
		<g id="Group" transform="translate(79.000000, 1137.000000)" sketch:type="MSLayerGroup">
			<g id="_x36_26570-_x2B_-Rectangle-61" sketch:type="MSShapeGroup">
				<g id="play" transform="translate(305.000000, 227.000000)">
					<path d="M284.991,34.277c0,22.115-13.372,41.428-34.047,49.181l-359.917,135.069c-6.834,2.571-13.899,3.818-20.887,3.818
						c-16.214,0-32.003-6.699-43.465-19.184c-16.4-17.847-20.296-43.549-9.919-65.458l27.315-57.705
						c4.475-9.463,15.776-13.501,25.221-9.013c9.45,4.486,13.481,15.775,9,25.239l-27.316,57.704
						c-5.708,12.061,1.292,21.1,3.575,23.582c2.282,2.48,10.691,10.221,23.182,5.528L237.649,47.971
						c8.795-3.305,9.463-11.314,9.463-13.693c0-2.372-0.668-10.389-9.476-13.687l-359.904-135.076
						c-12.497-4.68-20.899,3.054-23.182,5.542c-2.282,2.481-9.283,11.521-3.575,23.581l27.052,57.126
						c4.475,9.463,0.444,20.765-9.007,25.246c-9.45,4.487-20.739,0.443-25.22-9.014l-27.046-57.133
						c-10.376-21.922-6.48-47.611,9.919-65.464c16.4-17.853,41.678-23.883,64.352-15.365L250.944-14.896
						C271.619-7.131,284.991,12.169,284.991,34.277"/>
				</g>
			</g>
		</g>
	</g>
</g>
</svg>
