<?xml version="1.0" encoding="utf-8"?>
<!-- Generator: Adobe Illustrator 16.0.0, SVG Export Plug-In . SVG Version: 6.00 Build 0)  -->
<!DOCTYPE svg PUBLIC "-//W3C//DTD SVG 1.1//EN" "http://www.w3.org/Graphics/SVG/1.1/DTD/svg11.dtd">
<svg version="1.1" id="Layer_1" xmlns:sketch="http://www.bohemiancoding.com/sketch/ns"
	 xmlns="http://www.w3.org/2000/svg" xmlns:xlink="http://www.w3.org/1999/xlink" x="0px" y="0px" width="512px" height="512px"
	 viewBox="-244 -244 512 512" enable-background="new -244 -244 512 512" xml:space="preserve">
<title>search</title>
<desc>Created with Sketch.</desc>
<g id="Page-1" sketch:type="MSPage">
	<g id="tweegs-pagina-produttore-profilo" transform="translate(-205.000000, -15.000000)" sketch:type="MSArtboardGroup">
		<g id="menu-internal" transform="translate(0.000000, -1.000000)" sketch:type="MSLayerGroup">
			<g id="search" transform="translate(205.000000, 16.000000)" sketch:type="MSShapeGroup">
				<path id="Fill-1" fill="#999999" d="M237.104,237.131c-3.262,3.242-7.535,4.873-11.809,4.873s-8.527-1.631-11.789-4.873
					L54.289,77.896c-29.706,24.383-66.601,37.635-105.538,37.635C-143.199,115.531-218,40.73-218-51.22
					c0-91.95,74.801-166.751,166.751-166.751c91.931,0,166.75,74.801,166.75,166.751c0,9.212-7.459,16.671-16.68,16.671
					c-9.203,0-16.682-7.459-16.682-16.671c0-73.555-59.826-133.399-133.389-133.399c-73.564,0-133.409,59.844-133.409,133.399
					c0,73.564,59.845,133.39,133.409,133.39c35.629,0,69.131-13.87,94.331-39.061c3.111-3.129,7.365-4.872,11.789-4.872
					c4.423,0,8.658,1.743,11.789,4.872l170.443,170.443C243.588,220.057,243.588,230.609,237.104,237.131"/>
			</g>
		</g>
	</g>
</g>
</svg>
