<?xml version="1.0" encoding="utf-8"?>
<!-- Generator: Adobe Illustrator 16.0.0, SVG Export Plug-In . SVG Version: 6.00 Build 0)  -->
<!DOCTYPE svg PUBLIC "-//W3C//DTD SVG 1.1//EN" "http://www.w3.org/Graphics/SVG/1.1/DTD/svg11.dtd">
<svg version="1.1" id="Layer_1" xmlns="http://www.w3.org/2000/svg" xmlns:xlink="http://www.w3.org/1999/xlink" x="0px" y="0px"
	 width="512px" height="512px" viewBox="244 244 512 512" enable-background="new 244 244 512 512" xml:space="preserve">
<g transform="matrix(1 0 0 -1 0 1536)">
	<path d="M270.315,972.067c0,3.323,1.121,6.106,3.365,8.35c2.243,2.243,5.026,3.365,8.35,3.365c2.326,0,4.902-0.997,7.726-2.991
		c20.439-18.112,44.284-27.086,71.536-26.919c9.804,0,19.566,1.246,29.287,3.739c9.721,2.492,18.652,6.48,26.795,11.964
		c-4.819,2.659-8.766,6.148-11.84,10.469c-3.074,4.32-4.611,9.14-4.611,14.456c0,3.822,0.665,7.062,1.995,9.722
		c-2.991,0.997-6.689,2.699-11.092,5.109s-8.641,5.234-12.711,8.475c-4.071,3.239-7.478,6.812-10.22,10.718
		c-2.741,3.905-4.112,7.768-4.112,11.59c0,2.66,0.831,5.027,2.493,7.104s3.739,3.946,6.231,5.608
		c-6.813,4.154-13.127,10.302-18.943,18.444c-5.816,8.142-8.724,16.284-8.724,24.427c0,5.484,2.742,9.056,8.226,10.717
		c-5.815,5.816-10.427,12.546-13.833,20.191c-3.407,7.644-5.11,15.537-5.11,23.678c0,3.822,0.789,7.271,2.368,10.344
		c1.579,3.074,4.694,4.611,9.347,4.611c2.991,0,9.97-2.243,20.937-6.73c10.967-4.487,22.807-9.514,35.518-15.08
		c12.712-5.567,24.884-11.175,36.516-16.825s19.773-9.638,24.427-11.965c4.154-2.326,8.1-4.943,11.839-7.851
		c3.739-2.908,7.437-5.94,11.092-9.098c3.323,8.474,7.229,17.323,11.715,26.545s9.472,18.07,14.956,26.545
		c5.482,8.475,11.548,16.451,18.194,23.929c6.646,7.478,14.041,13.625,22.184,18.444c1.329,0.997,3.323,1.496,5.982,1.496
		c2.99,0,5.233-0.665,6.729-1.994c2.658,0.997,6.106,2.119,10.344,3.365c4.237,1.246,7.768,1.869,10.593,1.869
		c4.819,0,8.392-2.243,10.718-6.729c5.15,0,9.846-1.288,14.083-3.864c4.237-2.576,6.355-6.771,6.355-12.587
		c0-5.151-2.242-9.555-6.729-13.21c15.952-7.145,29.204-17.53,39.756-31.157c10.553-13.625,18.07-28.746,22.557-45.364
		c0.998-0.331,2.908-0.499,5.733-0.499c7.81,0,15.121,1.371,21.935,4.113c6.812,2.742,11.549,4.113,14.207,4.113
		c2.991,0,5.608-1.205,7.852-3.614s3.365-5.11,3.365-8.101c0-3.821-1.62-7.852-4.86-12.089s-6.023-7.52-8.35-9.845
		c3.822,0.664,7.312,0.041,10.469-1.87s4.735-5.11,4.735-9.597c0-4.818-2.202-8.973-6.604-12.462
		c-4.403-3.489-9.514-6.605-15.329-9.347c-5.816-2.742-11.84-4.86-18.071-6.356s-11.091-2.41-14.582-2.741
		c-7.145-23.099-18.194-43.537-33.149-61.316c-14.955-17.78-32.403-32.61-52.343-44.492c-19.94-11.88-41.376-20.979-64.308-27.294
		c-22.931-6.314-45.779-9.471-68.545-9.471c-36.391,0-70.871,7.769-103.439,23.306c-32.568,15.537-59.57,38.261-81.006,68.171
		C270.98,968.246,270.315,970.405,270.315,972.067z"/>
</g>
</svg>
