<?xml version="1.0" encoding="utf-8"?>
<!-- Generator: Adobe Illustrator 16.0.0, SVG Export Plug-In . SVG Version: 6.00 Build 0)  -->
<!DOCTYPE svg PUBLIC "-//W3C//DTD SVG 1.1//EN" "http://www.w3.org/Graphics/SVG/1.1/DTD/svg11.dtd">
<svg version="1.1" id="Layer_1" xmlns:sketch="http://www.bohemiancoding.com/sketch/ns"
	 xmlns="http://www.w3.org/2000/svg" xmlns:xlink="http://www.w3.org/1999/xlink" x="0px" y="0px" width="512px" height="512px"
	 viewBox="-211 -187.5 512 512" enable-background="new -211 -187.5 512 512" xml:space="preserve">
<title>cliente</title>
<desc>Created with Sketch.</desc>
<g id="Page-1" sketch:type="MSPage">
	<g id="tweegs-home-footer-2" transform="translate(-213.000000, -1073.000000)" sketch:type="MSArtboardGroup">
		<g id="Group" transform="translate(130.000000, 1073.000000)" sketch:type="MSLayerGroup">
			<path id="cliente" sketch:type="MSShapeGroup" d="M285.774,237.175c0,39.352-32.011,71.362-71.362,71.362
				c-4.664,0-8.442-3.782-8.442-8.447c0-4.661,3.778-8.443,8.442-8.443c30.036,0,54.473-24.436,54.473-54.472v-89.921
				c0-28.844-10.36-56.742-29.177-78.555c-18.621-21.589-44.298-35.906-72.3-40.312c-14.372-2.26-24.801-14.398-24.801-28.857
				v-5.115c0-4.663,3.779-8.443,8.443-8.443h5.005c18.34,0,33.261-14.921,33.261-33.261v-55.724
				c0-28.692-23.344-52.036-52.04-52.036H119.81c-28.694,0-52.038,23.344-52.038,52.036v55.724
				c0,18.339,14.922,33.261,33.261,33.261h3.691c4.663,0,8.443,3.78,8.443,8.443v5.115c0,14.459-10.43,26.597-24.802,28.857
				c-28,4.407-53.679,18.724-72.301,40.312C-2.75,90.512-13.112,118.41-13.112,147.254v89.921c0,30.036,24.437,54.472,54.472,54.472
				c4.663,0,8.443,3.782,8.443,8.443c0,4.665-3.78,8.447-8.443,8.447c-39.348,0-71.36-32.011-71.36-71.362v-89.921
				c0-32.894,11.818-64.708,33.276-89.584c21.23-24.613,50.517-40.938,82.462-45.965c5.048-0.795,8.952-4.429,10.154-9.106
				C70.645,0.015,50.883-21.373,50.883-47.29v-55.724c0-38.004,30.92-68.924,68.926-68.924h17.467
				c38.009,0,68.927,30.92,68.927,68.924v55.724c0,26.355-20.435,48.026-46.29,50.001c1.236,4.622,5.118,8.204,10.123,8.993
				c31.945,5.027,61.229,21.352,82.464,45.965c21.455,24.876,33.274,56.69,33.274,89.584V237.175z"/>
		</g>
	</g>
</g>
</svg>
