<?xml version="1.0" encoding="utf-8"?>
<!-- Generator: Adobe Illustrator 16.0.0, SVG Export Plug-In . SVG Version: 6.00 Build 0)  -->
<!DOCTYPE svg PUBLIC "-//W3C//DTD SVG 1.1//EN" "http://www.w3.org/Graphics/SVG/1.1/DTD/svg11.dtd">
<svg version="1.1" id="Layer_1" xmlns:sketch="http://www.bohemiancoding.com/sketch/ns"
	 xmlns="http://www.w3.org/2000/svg" xmlns:xlink="http://www.w3.org/1999/xlink" x="0px" y="0px" width="512px" height="512px"
	 viewBox="-245 -246 512 512" enable-background="new -245 -246 512 512" xml:space="preserve">
<title>warning</title>
<desc>Created with Sketch.</desc>
<g id="Page-1" sketch:type="MSPage">
	<g id="tweegs-pagina-produttore-profilo" transform="translate(-956.000000, -402.000000)" sketch:type="MSArtboardGroup">
		<g id="Group" transform="translate(79.000000, 84.000000)" sketch:type="MSLayerGroup">
			<path id="warning" sketch:type="MSShapeGroup" fill="#E84D4D" d="M872.064,453.732c4.167,4.188,9.92,6.557,15.812,6.557
				c5.87,0,11.645-2.369,15.79-6.557c4.189-4.146,6.559-9.9,6.559-15.78s-2.369-11.655-6.559-15.802
				c-4.146-4.166-9.92-6.557-15.79-6.557c-5.891,0-11.645,2.391-15.812,6.557c-4.146,4.146-6.537,9.9-6.537,15.802
				C865.528,443.832,867.918,449.586,872.064,453.732 M887.876,389.025c9.402,0,17.018-7.636,17.018-17.027V250.708
				c0-9.402-7.615-17.028-17.018-17.028s-17.028,7.625-17.028,17.028v121.291C870.848,381.39,878.474,389.025,887.876,389.025
				 M1115.152,515.16c-10.809,18.445-30.037,29.444-51.401,29.444h-351.74c-21.385,0-40.603-10.999-51.412-29.444
				c-10.82-18.445-11.031-40.613-0.582-59.271c4.59-8.207,14.965-11.126,23.173-6.536c8.207,4.59,11.126,14.977,6.536,23.184
				c-4.474,7.996-4.389,17.493,0.243,25.383c4.643,7.912,12.872,12.629,22.041,12.629h351.74c9.138,0,17.388-4.717,22.021-12.629
				c4.632-7.89,4.717-17.387,0.254-25.383L910.16,158.513c-4.59-8.186-12.914-13.062-22.284-13.062
				c-9.381,0-17.705,4.886-22.285,13.062L758.22,350.252c-4.601,8.208-14.976,11.127-23.184,6.516
				c-8.197-4.59-11.126-14.977-6.536-23.173l107.382-191.718c10.682-19.091,30.122-30.481,51.994-30.481
				c21.882,0,41.301,11.391,52.005,30.481l175.863,314.013C1126.194,474.547,1125.961,496.715,1115.152,515.16"/>
		</g>
	</g>
</g>
</svg>
