<?xml version="1.0" encoding="utf-8"?>
<!-- Generator: Adobe Illustrator 16.0.0, SVG Export Plug-In . SVG Version: 6.00 Build 0)  -->
<!DOCTYPE svg PUBLIC "-//W3C//DTD SVG 1.1//EN" "http://www.w3.org/Graphics/SVG/1.1/DTD/svg11.dtd">
<svg version="1.1" id="Layer_1" xmlns:sketch="http://www.bohemiancoding.com/sketch/ns"
	 xmlns="http://www.w3.org/2000/svg" xmlns:xlink="http://www.w3.org/1999/xlink" x="0px" y="0px" width="512px" height="512px"
	 viewBox="-246 -246 512 512" enable-background="new -246 -246 512 512" xml:space="preserve">
<title>website</title>
<desc>Created with Sketch.</desc>
<g id="Page-1" sketch:type="MSPage">
	<g id="tweegs-pagina-produttore-profilo" transform="translate(-896.000000, -588.000000)" sketch:type="MSArtboardGroup">
		<path id="website" sketch:type="MSShapeGroup" fill="#32303F" d="M706.025,399.152c46.881-46.87,123.164-46.87,170.045,0
			l82.99,83.001c46.904,46.881,46.904,123.165-0.092,170.137c-13.23,13.23-28.896,22.947-46.549,28.896
			c-1.631,0.551-3.296,0.804-4.938,0.804c-6.467,0-12.496-4.089-14.667-10.543c-2.733-8.108,1.631-16.883,9.739-19.616
			c13.093-4.41,24.715-11.6,34.615-21.522c34.8-34.811,34.8-91.443,0-126.254l-83.001-83.001
			c-16.86-16.86-39.279-26.151-63.121-26.151c-23.843,0-46.261,9.291-63.213,26.243c-34.811,34.799-34.811,91.443,0,126.242
			l60.628,60.629c6.042,6.053,6.042,15.86,0,21.901c-6.041,6.041-15.849,6.041-21.901,0l-60.629-60.629
			C659.052,522.409,659.052,446.126,706.025,399.152 M852.951,543.598c-46.973,46.962-46.973,123.234-0.092,170.138l83.002,82.989
			c23.429,23.452,54.231,35.167,85.033,35.167c30.78,0,61.561-11.715,85.012-35.167c22.81-22.81,35.305-52.991,35.305-85.103
			c0-32.112-12.495-62.318-35.213-85.035l-60.617-60.617c-6.064-6.052-15.872-6.041-21.913,0s-6.041,15.849,0,21.891l60.641,60.641
			c34.8,34.799,34.8,91.42,0,126.242c-16.952,16.951-39.37,26.23-63.214,26.23c-23.865,0-46.283-9.279-63.12-26.139l-83.013-83.014
			c-34.811-34.799-34.811-91.432,0-126.242c9.912-9.912,21.523-17.124,34.616-21.534c8.107-2.722,12.473-11.508,9.762-19.605
			c-2.744-8.108-11.52-12.473-19.627-9.739C881.848,520.64,866.182,530.368,852.951,543.598"/>
	</g>
</g>
</svg>
